<?xml version="1.0" standalone="no"?>
<!DOCTYPE svg PUBLIC "-//W3C//DTD SVG 1.1//EN" "http://www.w3.org/Graphics/SVG/1.1/DTD/svg11.dtd" >
<svg xmlns="http://www.w3.org/2000/svg">
<metadata></metadata>
<defs>
<font id="LiberationSansBoldItalic" horiz-adv-x="1139" >
<font-face units-per-em="2048" ascent="1638" descent="-410" />
<missing-glyph horiz-adv-x="569" />
<glyph horiz-adv-x="0" />
<glyph horiz-adv-x="2048" />
<glyph unicode="&#xd;" horiz-adv-x="569" />
<glyph unicode=" "  horiz-adv-x="569" />
<glyph unicode="&#x09;" horiz-adv-x="569" />
<glyph unicode="&#xa0;" horiz-adv-x="569" />
<glyph unicode="!" horiz-adv-x="682" d="M79 0l52 270h288l-52 -270h-288zM193 426l160 983h294l-224 -983h-230z" />
<glyph unicode="&#x22;" horiz-adv-x="971" d="M219 898l72 511h273l-126 -511h-219zM645 898l72 511h275l-128 -511h-219z" />
<glyph unicode="#" d="M65 381v149h188l70 332h-207v148h238l84 385h153l-82 -385h307l84 385h156l-84 -385h164v-148h-197l-69 -332h215v-149h-246l-82 -381h-156l80 381h-307l-80 -381h-153l79 381h-155zM407 530h309l70 332h-307z" />
<glyph unicode="$" d="M-11 366l262 42q14 -177 194 -177l73 388q-262 65 -344 233q-30 60 -30 136q0 211 175 318q146 88 353 88l24 126l110 -4l-27 -130q170 0 273 -86q92 -78 105 -211l-261 -57q-22 122 -106 150q-25 8 -49 8l-67 -353q298 -71 377 -229q29 -58 29 -151.5t-38 -176.5 t-110 -139q-141 -110 -416 -120l-33 -173h-112l32 175q-171 0 -283 89q-119 94 -131 254zM412 1010q0 -34 10.5 -55.5t29.5 -38.5q32 -27 114 -53l67 331q-101 0 -161 -54t-60 -130zM554 231q173 0 235 101q21 35 21 96q0 123 -183 165z" />
<glyph unicode="%" horiz-adv-x="1821" d="M112 818q0 112 24 197q48 235 179 335q94 71 236 71q58 0 114 -16t99 -53q91 -78 91 -239q0 -82 -26 -178q-49 -227 -185 -331q-104 -80 -237 -80q-206 0 -272 173q-23 60 -23 121zM289 0l1086 1409h199l-1088 -1409h-197zM325 827q0 -142 86 -142q150 0 202 260 q28 109 28 186q0 139 -96 139q-70 0 -113 -48q-73 -81 -102 -314q-5 -44 -5 -81zM1021 278q0 113 24 198q48 235 179 334q94 72 236 72q58 0 114 -16t98 -52q92 -79 92 -240q0 -82 -26 -178q-49 -227 -186 -332q-103 -79 -236 -79q-206 0 -272 173q-23 60 -23 120zM1234 288 q0 -142 86 -142q150 0 202 260q28 109 28 186q0 139 -96 139q-70 0 -114 -49q-72 -80 -100 -312q-6 -45 -6 -82z" />
<glyph unicode="&#x26;" horiz-adv-x="1479" d="M49 354q0 309 426 457q-35 111 -35 209.5t28 168t82 120.5q114 108 318 108q240 0 312 -145q24 -48 24 -122.5t-38 -139t-102 -114.5q-93 -73 -328 -169q53 -148 96 -218t76 -114q133 142 234 365l187 -83q-100 -234 -278 -416q75 -64 184 -64q63 0 111 16l-39 -203 q-66 -22 -139 -22q-174 0 -305 117q-81 -62 -136 -83q-112 -42 -263 -42q-201 0 -308 96.5t-107 277.5zM304 360q0 -86 52 -138t137 -52q127 0 232 79q-124 164 -200 382q-103 -46 -142 -87q-79 -81 -79 -184zM667 1050.5q0 -90.5 20 -154.5q157 60 203 93q90 65 90 153 q0 51 -33.5 78t-82 27t-83 -13t-59.5 -38q-55 -55 -55 -145.5z" />
<glyph unicode="'" horiz-adv-x="487" d="M198 898l73 511h272l-126 -511h-219z" />
<glyph unicode="(" horiz-adv-x="682" d="M74 296q0 547 292 944q98 133 227 244h281q-524 -500 -524 -1204q0 -399 147 -705h-275q-148 316 -148 721z" />
<glyph unicode=")" horiz-adv-x="682" d="M-180 -425q525 513 525 1234q0 258 -85 516q-28 85 -64 159h265q161 -320 161 -691q0 -559 -294 -968q-97 -136 -227 -250h-281z" />
<glyph unicode="*" horiz-adv-x="797" d="M88 1042l68 197l239 -104l-18 274h215l-18 -274l235 104l68 -197l-250 -61l186 -213l-184 -121l-146 252l-149 -252l-186 123l190 211z" />
<glyph unicode="+" horiz-adv-x="1196" d="M125 569v224h399v408h226v-408h402v-224h-402v-408h-226v408h-399z" />
<glyph unicode="," horiz-adv-x="569" d="M-20 -317q164 164 195 317h-129l59 305h289l-47 -239q-45 -233 -182 -383h-185z" />
<glyph unicode="-" horiz-adv-x="682" d="M56 409l47 244h520l-47 -244h-520z" />
<glyph unicode="." horiz-adv-x="569" d="M46 0l59 305h289l-59 -305h-289z" />
<glyph unicode="/" horiz-adv-x="569" d="M-76 -41l587 1525h238l-583 -1525h-242z" />
<glyph unicode="0" d="M85 454q0 110 30.5 271.5t69.5 267.5t86.5 182t102 125.5t112.5 77.5q105 52 238 52q395 0 395 -466q0 -115 -33 -273.5t-71 -261.5t-84.5 -179t-99.5 -127.5t-111 -83.5q-107 -59 -221.5 -59t-187.5 26.5t-123 83.5q-103 117 -103 364zM358 415q0 -214 139 -214 q114 0 184 103q77 113 125 381q40 221 40 292q0 233 -152 233q-120 0 -185 -102q-80 -128 -139 -552q-12 -82 -12 -141z" />
<glyph unicode="1" d="M33 0l43 231h349l179 921l-381 -214l47 242l396 229h270l-230 -1178h323l-44 -231h-952z" />
<glyph unicode="2" d="M-32 0l37 195q116 201 373 386q70 50 135.5 96t123 89.5t99.5 89.5q93 102 93 207q0 143 -162 143q-83 0 -123 -30q-71 -52 -100 -154l-266 59q103 349 509 349q327 0 406 -203q25 -64 25 -143t-25 -145t-68 -123t-99.5 -107t-120 -96t-129.5 -90.5t-128 -90.5 q-140 -105 -205 -201h654l-44 -231h-985z" />
<glyph unicode="3" d="M16 343l282 38q17 -141 138 -167q39 -8 91.5 -8t94 16t68.5 44q55 55 55 150q0 186 -220 186h-107l44 227h73q123 0 181 32t86.5 75.5t28.5 115t-38.5 113t-118.5 41.5q-186 0 -237 -184l-267 52q102 356 515 356q203 0 317 -92q114 -91 114 -252q0 -234 -208 -324 q-67 -29 -153 -37l-1 -4q199 -32 256 -185q20 -52 20 -128.5t-34 -156t-100 -139.5q-142 -132 -385 -132q-353 0 -457 218q-31 66 -38 145z" />
<glyph unicode="4" d="M-34 286l41 207l717 916h370l-178 -913h188l-42 -210h-188l-54 -286h-268l54 286h-640zM259 496h389l102 524q18 90 50 186q-46 -78 -117 -170z" />
<glyph unicode="5" d="M20 329l283 45q17 -88 60 -126q48 -42 131 -42t133.5 22t84.5 60q66 77 66 198q0 167 -114 208q-35 13 -75 13q-123 0 -202 -91h-274l203 793h847l-43 -231h-594l-87 -334q101 90 255 90q162 0 263 -107q107 -113 107 -309q0 -242 -152 -388q-156 -150 -426 -150 q-315 0 -422 210q-32 64 -44 139z" />
<glyph unicode="6" d="M95 469q0 222 47.5 394.5t133 298.5t205.5 197t264 71q253 0 355 -166q39 -63 50 -158l-266 -41q-27 143 -148 143t-206 -115t-124 -347q53 72 134.5 116.5t172.5 44.5t156 -24.5t111 -72.5q98 -99 98 -277q0 -229 -148 -387q-155 -166 -397 -166q-212 0 -325 134 q-113 133 -113 355zM369 410.5q0 -86.5 49 -148.5t140 -62q105 0 168 78q66 82 66 221q0 149 -108 189q-32 12 -73.5 12t-85.5 -17t-78.5 -50.5t-56 -84.5t-21.5 -137.5z" />
<glyph unicode="7" d="M143 1178l45 231h1031l-44 -223q-84 -102 -162 -194t-147.5 -181.5t-130 -179.5t-110.5 -188q-104 -204 -153 -443h-298q88 455 474 902q116 134 245 276h-750z" />
<glyph unicode="8" d="M27 360q0 167 119 268q94 80 240 109v4q-187 83 -187 311q0 176 135 276q137 101 373 101q200 0 315 -92q114 -91 114 -246q0 -138 -84 -231q-86 -97 -232 -117l-1 -4q163 -48 213 -196q17 -50 17 -129t-35 -161.5t-104 -142.5q-149 -130 -417 -130q-231 0 -353 108 q-113 101 -113 272zM317 377q0 -140 113 -184q38 -15 89 -15t94.5 17t76.5 51q70 72 70 198q0 132 -104 179q-38 17 -96.5 17t-104 -19t-75.5 -53q-63 -71 -63 -191zM476 1031.5q0 -43.5 8 -76t28 -57.5q43 -58 119.5 -58t115.5 21.5t63 54.5q41 58 41 148q0 168 -172 168 q-142 0 -187 -117q-16 -40 -16 -83.5z" />
<glyph unicode="9" d="M48 311l274 48q29 -157 176 -157q233 0 319 451q-63 -76 -119 -103q-93 -47 -186.5 -47t-159 28.5t-110.5 80.5q-95 106 -95 281q0 227 153 381q154 156 392 156q195 0 314 -122q124 -129 124 -351q0 -137 -33.5 -301.5t-97.5 -297.5t-145 -217q-157 -161 -375 -161 q-270 0 -380 185q-37 62 -51 146zM432 900q0 -88 50 -140q48 -50 129 -50q86 0 145 46q99 77 99 264q0 75 -49 132q-49 58 -115.5 58t-111.5 -20t-77 -60q-70 -84 -70 -230z" />
<glyph unicode=":" horiz-adv-x="682" d="M89 0l55 281h288l-55 -281h-288zM235 752l55 282h288l-55 -282h-288z" />
<glyph unicode=";" horiz-adv-x="682" d="M23 -317q165 165 195 317h-129l55 281h288l-42 -215q-45 -232 -183 -383h-184zM235 752l55 282h288l-55 -282h-288z" />
<glyph unicode="&#x3c;" horiz-adv-x="1196" d="M124 516v322l1027 391v-228l-833 -325l833 -324v-227z" />
<glyph unicode="=" horiz-adv-x="1196" d="M123 291v221h1027v-221h-1027zM123 842v223h1027v-223h-1027z" />
<glyph unicode="&#x3e;" horiz-adv-x="1196" d="M124 125v227l832 324l-832 325v228l1027 -391v-322z" />
<glyph unicode="?" horiz-adv-x="1251" d="M184 1048q117 382 561 382q211 0 336 -92q128 -94 128 -263q0 -215 -235 -362q-66 -41 -133 -78q-86 -56 -113 -84q-53 -55 -62 -125h-267q34 181 185 288q48 34 111.5 73.5t109 72.5t72.5 64q49 55 49 124.5t-48 111t-149 41.5q-227 0 -279 -193zM309 0l52 270h289 l-52 -270h-289z" />
<glyph unicode="@" horiz-adv-x="1997" d="M150 491q0 423 268 705q174 183 432 253q129 35 303.5 35t323 -59t245.5 -159q189 -196 189 -511q0 -283 -141 -469q-139 -182 -340 -182q-135 0 -177 96q-14 33 -14 73t6 70h-6q-74 -155 -237 -218q-54 -21 -131 -21t-140.5 34t-101.5 89q-70 101 -70 239t34 248t98 196 q142 191 368 191q195 0 264 -174h6l39 152h156l-117 -506q-37 -172 -37 -231t23.5 -80t68.5 -21t100.5 38t99.5 106q97 150 97 368q0 261 -162 421q-171 169 -470 169q-385 0 -607 -256q-208 -240 -208 -596q0 -276 156 -451q169 -190 474 -190t600 155l62 -122 q-312 -177 -658 -177q-378 0 -594 232q-202 217 -202 553zM725 491q0 -114 48.5 -180t148.5 -66t185 91q129 136 155 381q2 19 2 50t-15.5 70.5t-43.5 68.5q-59 60 -154 60q-155 0 -246 -158q-80 -137 -80 -317z" />
<glyph unicode="A" horiz-adv-x="1479" d="M-42 0l787 1409h348l238 -1409h-292l-55 360h-537l-195 -360h-294zM566 582h395l-67 452l-5 38q-13 97 -13 120q-21 -64 -98 -212z" />
<glyph unicode="B" horiz-adv-x="1479" d="M36 0l274 1409h584q383 0 478 -189q31 -60 31 -135t-23 -132.5t-66 -100.5q-83 -83 -235 -114q139 -23 215 -108q74 -82 74 -203t-50.5 -204t-135.5 -133q-157 -90 -441 -90h-705zM373 219h328q199 0 281 45q90 50 90 173q0 186 -290 186h-330zM494 841h294 q254 0 304 107q18 38 18 86t-16.5 77.5t-47.5 46.5q-57 32 -184 32h-301z" />
<glyph unicode="C" horiz-adv-x="1479" d="M100 569q0 376 223 617q145 155 367 214q110 30 242 30t231.5 -32t168.5 -86q126 -99 171 -274l-274 -71q-43 157 -190 211q-53 20 -150 20t-193.5 -45.5t-161.5 -128.5q-133 -166 -133 -451q0 -261 187 -337q61 -25 143 -25q266 0 418 258l227 -117q-210 -372 -665 -372 q-301 0 -463 172q-148 156 -148 417z" />
<glyph unicode="D" horiz-adv-x="1479" d="M36 0l274 1409h424q500 0 640 -339q47 -113 47 -254.5t-30.5 -253t-85 -201t-130 -157t-165.5 -112.5q-179 -92 -396 -92h-578zM375 228h230q239 0 386 146q154 152 154 420q0 288 -237 363q-76 24 -172 24h-176z" />
<glyph unicode="E" horiz-adv-x="1366" d="M36 0l273 1409h1108l-44 -228h-813l-69 -354h752l-44 -228h-752l-72 -371h854l-45 -228h-1148z" />
<glyph unicode="F" horiz-adv-x="1251" d="M36 0l273 1409h986l-44 -228h-691l-85 -436h668l-44 -228h-668l-101 -517h-294z" />
<glyph unicode="G" horiz-adv-x="1593" d="M100 583q0 379 228 612q229 235 614 235q246 0 403 -118q137 -103 185 -273l-282 -78q-43 164 -194 217q-55 20 -155 20t-198.5 -46t-165.5 -127q-136 -164 -136 -433q0 -263 199 -350q69 -31 148.5 -31t135.5 8t105 21q95 27 161 67l46 228h-342l39 208h614l-105 -568 q-145 -100 -257 -134q-196 -60 -380.5 -60t-305 45.5t-199.5 125.5q-158 158 -158 431z" />
<glyph unicode="H" horiz-adv-x="1479" d="M36 0l273 1409h295l-109 -561h626l109 561h284l-274 -1409h-284l118 604h-626l-118 -604h-294z" />
<glyph unicode="I" horiz-adv-x="569" d="M36 0l273 1409h295l-274 -1409h-294z" />
<glyph unicode="J" d="M25 379l267 58q46 -226 207 -226q130 0 173 143q12 41 21 86l143 738h-281l44 231h575l-193 -986q-43 -224 -157 -330q-121 -113 -344 -113q-299 0 -404 233q-34 74 -51 166z" />
<glyph unicode="K" horiz-adv-x="1479" d="M36 0l273 1409h295l-130 -639l760 639h369l-747 -616l465 -793h-326l-355 640l-211 -123l-101 -517h-292z" />
<glyph unicode="L" horiz-adv-x="1251" d="M36 0l273 1409h295l-229 -1181h756l-45 -228h-1050z" />
<glyph unicode="M" horiz-adv-x="1706" d="M36 0l274 1409h395l88 -788q4 -31 8 -77.5t8 -95t9 -103.5q65 143 129 271l402 793h393l-274 -1409h-262l172 884q26 130 74 322q-36 -78 -59.5 -130t-39 -85t-30.5 -64.5t-28.5 -60t-25.5 -50.5l-412 -816h-210l-94 819q-2 19 -5 45.5t-6 57.5q-8 69 -14.5 135.5 t-14.5 148.5q-28 -244 -43 -319l-172 -887h-262z" />
<glyph unicode="N" horiz-adv-x="1479" d="M36 0l274 1409h350l377 -1141q6 39 11 79q13 88 30 177l174 885h262l-274 -1409h-356l-374 1131q-23 -162 -38 -239l-174 -892h-262z" />
<glyph unicode="O" horiz-adv-x="1593" d="M100 573q0 252 119 464q141 251 411 345q135 48 290.5 48t272.5 -40.5t199 -115.5q167 -156 167 -423t-121 -479q-143 -251 -414 -345q-136 -47 -293 -47t-274 43.5t-197 122.5q-160 158 -160 427zM400 581q0 -184 90 -276.5t251 -92.5q411 0 502 468q12 62 12 151 t-24 158t-68 115.5t-107.5 69.5t-156 23t-176.5 -32t-145 -92q-122 -118 -165 -346q-13 -69 -13 -146z" />
<glyph unicode="P" horiz-adv-x="1366" d="M36 0l273 1409h541q247 0 384 -113q135 -112 135 -309q0 -226 -155 -359q-153 -132 -409 -132h-377l-98 -496h-294zM471 723h289q155 0 232.5 58t77.5 190q0 209 -248 209h-262z" />
<glyph unicode="Q" horiz-adv-x="1593" d="M100 573q0 252 119 464q141 251 411 345q135 48 290.5 48t272.5 -40.5t199 -115.5q167 -156 167 -423q0 -246 -105 -449q-116 -225 -334 -334q-108 -55 -238 -76q19 -98 64.5 -142t134.5 -44q80 0 150 14l-45 -195q-72 -25 -176 -25t-182 28t-129 80q-94 94 -115 283 q-232 37 -360 195q-124 152 -124 387zM400 581q0 -184 90 -276.5t251 -92.5q411 0 502 468q12 62 12 151t-24 158t-68 115.5t-107.5 69.5t-156 23t-176.5 -32t-145 -92q-122 -118 -165 -346q-13 -69 -13 -146z" />
<glyph unicode="R" horiz-adv-x="1479" d="M36 0l274 1409h651q255 0 387 -121q117 -107 117 -282q0 -177 -123 -294q-107 -103 -280 -129l274 -583h-326l-230 534h-346l-103 -534h-295zM479 764h393q211 0 273 124q21 43 21 98t-19 91.5t-52 58.5q-64 44 -171 44h-364z" />
<glyph unicode="S" horiz-adv-x="1366" d="M25 365l289 49q30 -163 181 -200q53 -13 125 -13q345 0 345 199q0 89 -75 137q-63 40 -190 73t-209.5 64t-144.5 78q-133 104 -133 285q0 184 167 292q157 101 406 101q371 0 503 -200q41 -63 56 -139l-288 -67q-22 90 -95.5 143.5t-191.5 53.5q-194 0 -249 -104 q-17 -32 -17 -73.5t22.5 -72t61.5 -52.5q54 -30 160.5 -59t160 -45.5t103.5 -39t94 -53t77 -72.5q71 -92 71 -212t-40 -202t-121 -139q-166 -117 -493 -117q-398 0 -520 217q-41 72 -55 168z" />
<glyph unicode="T" horiz-adv-x="1251" d="M145 1181l44 228h1206l-44 -228h-456l-230 -1181h-295l230 1181h-455z" />
<glyph unicode="U" horiz-adv-x="1479" d="M119 431q0 95 23 204l148 774h295l-153 -810q-18 -87 -18 -156.5t20 -110t56.5 -67.5t87 -40.5t120 -13.5t130.5 17t106 56q88 75 124 257l168 868h295l-171 -879q-83 -419 -418 -517q-114 -33 -251.5 -33t-240.5 29.5t-174 86.5q-147 118 -147 335z" />
<glyph unicode="V" horiz-adv-x="1366" d="M171 1409h305l114 -905q16 -147 22 -266q73 165 124 266l465 905h308l-772 -1409h-339z" />
<glyph unicode="W" horiz-adv-x="1933" d="M150 1409h280l36 -815q7 -168 7 -346q69 175 95 237.5t37.5 91t21.5 51.5l334 781h316l32 -895q2 -42 3.5 -88t3.5 -89.5t3 -88.5q53 143 135 347l334 814h291l-638 -1409h-350l-27 812q0 11 -1 46.5t-2 80.5q-2 90 -2 177q-49 -130 -60.5 -160t-20.5 -54 q-21 -52 -36 -87l-348 -815h-355z" />
<glyph unicode="X" horiz-adv-x="1366" d="M-94 0l652 736l-338 673h309l224 -471l402 471h313l-600 -677l367 -732h-307l-253 532l-455 -532h-314z" />
<glyph unicode="Y" horiz-adv-x="1366" d="M172 1409h292l259 -605l474 605h323l-684 -831l-112 -578h-294l112 578z" />
<glyph unicode="Z" horiz-adv-x="1251" d="M-48 0l40 209l927 969h-663l45 231h1014l-40 -205l-930 -973h782l-45 -231h-1130z" />
<glyph unicode="[" horiz-adv-x="682" d="M-54 -425l370 1909h542l-37 -190h-276l-297 -1528h276l-37 -191h-541z" />
<glyph unicode="\" horiz-adv-x="569" d="M111 1485h238l183 -1526h-243z" />
<glyph unicode="]" horiz-adv-x="682" d="M-174 -425l37 191h277l297 1528h-278l37 190h542l-371 -1909h-541z" />
<glyph unicode="^" horiz-adv-x="1196" d="M85 514l391 895h322l393 -895h-229l-326 752l-324 -752h-227z" />
<glyph unicode="_" d="M-120 -172h1177v-78h-1177v78z" />
<glyph unicode="`" horiz-adv-x="682" d="M289 1459l8 43h258l195 -288l-6 -31h-148z" />
<glyph unicode="a" d="M10 278q0 334 413 372q65 6 128 7l191 3l8 36q13 56 13 108.5t-34 83.5t-78 31t-75 -4t-58 -19q-63 -33 -85 -119l-263 31q51 212 284 273q81 21 187 21q207 0 303.5 -73t96.5 -222q0 -37 -24 -157l-71 -353q-8 -45 -8 -72q0 -65 79 -65q30 0 62 7l-14 -155 q-58 -22 -165.5 -22t-161.5 42t-54 111q0 37 5 64h-6q-75 -117 -147 -167q-87 -60 -219 -60q-147 0 -231 92q-76 82 -76 206zM297 325q0 -111 91 -141q26 -8 55 -8q118 0 199 122q30 46 47 113l22 92h-162q-117 -2 -184.5 -48t-67.5 -130z" />
<glyph unicode="b" horiz-adv-x="1251" d="M35 0q5 15 15.5 63.5t18.5 84.5t15 75l246 1261h281l-84 -427q-28 -144 -32 -144h4q56 84 145.5 136.5t190.5 52.5t164 -25t105 -71q88 -95 88 -258v-14q0 -107 -24.5 -233.5t-68.5 -228t-107 -166.5q-121 -126 -323 -126q-246 0 -313 198h-2q-35 -152 -48 -178h-271z M407 389.5q0 -44.5 14.5 -87t40.5 -71.5q54 -58 146 -58q106 0 164 69q64 76 105 274q22 102 22 192.5t-35.5 144.5t-128.5 54q-272 0 -323 -435q-5 -38 -5 -82.5z" />
<glyph unicode="c" d="M63 405q0 105 21.5 197.5t60 174t86 139t102.5 94t113 56.5q100 36 220.5 36t198.5 -29t131 -79q100 -94 113 -253l-284 -23q-11 191 -167 191q-110 0 -171 -77q-59 -75 -106 -257q-23 -115 -23 -168q0 -234 178 -234q158 0 223 208l271 -50q-107 -351 -510 -351 q-226 0 -344 118q-113 113 -113 307z" />
<glyph unicode="d" horiz-adv-x="1251" d="M58 354q0 102 24.5 228t73 227.5t112.5 166.5q126 126 312 126q256 0 314 -198h5q6 57 26 162l84 418h277l-238 -1253q-20 -112 -29 -231h-281q0 62 15 160h-4q-108 -141 -247 -170q-50 -11 -120 -11t-132.5 28t-105.5 78q-86 102 -86 269zM355 393q0 -221 160 -221 q176 0 259 182q45 101 64 256q4 38 4 71q0 120 -47 174.5t-141 54.5q-104 0 -169 -72q-97 -106 -125 -366q-5 -41 -5 -79z" />
<glyph unicode="e" d="M63 418q0 320 165 506q158 178 418 178q217 0 330 -114q106 -107 106 -301q0 -95 -24 -211h-700q-7 -38 -7 -89q0 -219 184 -219q147 0 213 169l245 -74q-67 -143 -161 -206q-114 -77 -316 -77q-216 0 -336 119q-117 115 -117 319zM391 663h431q3 24 3 56 q0 107 -49.5 156t-129.5 49q-135 0 -210 -132q-28 -50 -45 -129z" />
<glyph unicode="f" horiz-adv-x="682" d="M74 0l174 892h-158l37 190h158l22 113q28 146 113 213q95 76 278 76q73 0 155 -17l-36 -181q-45 10 -104 10t-89 -32t-43 -97l-16 -85h213l-37 -190h-213l-174 -892h-280z" />
<glyph unicode="g" horiz-adv-x="1251" d="M-7 -142l283 30q27 -127 188 -127q166 0 228 147q30 68 42 138q23 124 27 155h-2q-72 -103 -123 -138q-101 -71 -231 -71q-157 0 -249 102q-91 100 -91 262q0 114 21 224q51 261 171.5 391t328.5 130q180 0 272 -119q29 -39 43 -89h2q16 84 31 135t17 54h265 q-5 -22 -15.5 -68t-18.5 -84l-180 -920q-46 -224 -172 -326q-135 -109 -399 -109q-302 0 -395 161q-31 53 -43 122zM359 396q0 -199 173 -199q157 0 250 191q64 129 64 298q0 108 -56 168q-53 55 -142 55q-107 0 -166 -69q-81 -93 -116 -358q-7 -49 -7 -86z" />
<glyph unicode="h" horiz-adv-x="1251" d="M35 0l286 1484h280l-79 -405q-10 -53 -17.5 -85.5t-12.5 -55.5t-9 -41h3q146 204 373 204q152 0 229 -73t77 -211q0 -66 -21 -164l-127 -653h-279l118 595q26 123 26 165q0 129 -152 129q-97 0 -182 -77q-90 -83 -113 -206l-118 -606h-282z" />
<glyph unicode="i" horiz-adv-x="569" d="M35 0l210 1082h281l-211 -1082h-280zM282 1277l41 207h281l-41 -207h-281z" />
<glyph unicode="j" horiz-adv-x="569" d="M-220 -406l36 188q26 -4 59 -4t57 8t41 27q31 35 49 127l223 1142h281l-236 -1210q-43 -213 -208 -275q-59 -22 -122 -22q-109 0 -180 19zM283 1277l40 207h281l-40 -207h-281z" />
<glyph unicode="k" d="M35 0l288 1484h281l-167 -850l465 448h322l-473 -422l275 -660h-298l-188 497l-140 -75l-85 -422h-280z" />
<glyph unicode="l" horiz-adv-x="569" d="M35 0l288 1484h281l-289 -1484h-280z" />
<glyph unicode="m" horiz-adv-x="1821" d="M35 0l166 851q20 95 39 231h272q0 -11 -7.5 -58.5t-12 -77t-8.5 -49.5h3q69 104 121 140q93 64 212 64t191 -59.5t86 -172.5q71 111 128 154q105 78 234.5 78t203 -73t73.5 -211q0 -64 -21 -164l-128 -653h-279l122 627q3 15 6 33l6 38q6 36 6 68v5q-3 121 -134.5 121 t-205.5 -168q-24 -52 -37 -117l-119 -607h-279l123 635q17 91 17 136q0 121 -126 121q-90 0 -159 -78q-66 -76 -93 -210l-118 -604h-282z" />
<glyph unicode="n" horiz-adv-x="1251" d="M35 0l166 851q16 79 38 231h268q0 -18 -10 -91.5t-14 -93.5h3q146 204 373 204q152 0 229 -73t77 -211q0 -66 -21 -164l-127 -653h-279l118 595q26 123 26 165q0 129 -152 129q-97 0 -182 -77q-90 -83 -113 -206l-118 -606h-282z" />
<glyph unicode="o" horiz-adv-x="1251" d="M63 419q0 310 178 496t463 186q353 0 450 -241q31 -78 31 -209t-49 -261.5t-136 -221.5q-180 -188 -465 -188q-216 0 -343 116q-129 117 -129 323zM358 431q0 -259 208 -259q108 0 173 52q137 112 152 438q0 247 -208 247q-108 0 -175 -54q-88 -72 -130 -255 q-20 -87 -20 -169z" />
<glyph unicode="p" horiz-adv-x="1251" d="M-45 -425l243 1258q14 71 18.5 103l9 64t11.5 82h275q0 -31 -9 -90.5t-14 -78.5h4q105 147 245 178q50 11 120.5 11t133.5 -25t106 -71q87 -95 87 -258q0 -261 -93 -476q-127 -292 -430 -292q-246 0 -313 198h-2q-7 -62 -32 -188l-80 -415h-280zM400 389.5 q0 -44.5 14.5 -87t41.5 -71.5q52 -58 145 -58q107 0 167 71q86 102 116 368q5 44 5 82q0 106 -38.5 159.5t-106.5 53.5t-116 -16.5t-88 -56.5q-105 -105 -136 -362q-4 -38 -4 -82.5z" />
<glyph unicode="q" horiz-adv-x="1251" d="M59 348q0 107 24.5 233.5t73.5 228.5t114 167q125 125 309 125q189 0 266 -108q27 -38 47 -91h5q25 123 47 179h270q-15 -50 -61 -287l-236 -1220h-281l85 432q14 66 36 156h-4q-109 -142 -250 -173q-50 -11 -120.5 -11t-132.5 27.5t-105 75.5q-87 99 -87 266zM356 386 q0 -214 162 -214q275 0 321 437q4 38 4 71q0 230 -174 230q-114 0 -181 -70q-78 -81 -114 -275q-18 -94 -18 -179z" />
<glyph unicode="r" horiz-adv-x="797" d="M35 0l161 830q24 120 42 252h268q-3 -22 -6.5 -52t-7.5 -61t-8.5 -59.5t-7.5 -48.5h4q70 128 138 183q72 58 169 58q47 0 103 -14l-46 -235q-69 15 -114 15q-244 0 -313 -354l-101 -514h-281z" />
<glyph unicode="s" d="M23 271l251 36q30 -109 146 -133q41 -8 93.5 -8t93 7.5t69.5 24.5q63 34 63 104q0 59 -55 88q-43 22 -145.5 44.5t-169 47.5t-114.5 64q-102 81 -102 223q0 170 141 255q125 75 343 75q196 0 296 -63q111 -70 136 -225l-251 -29q-17 69 -66 100t-134 31q-205 0 -205 -120 q0 -80 153 -117q47 -12 109.5 -26.5t123 -37.5t105.5 -60q96 -77 96 -218q0 -264 -290 -332q-93 -22 -213 -22q-201 0 -317 71t-157 220z" />
<glyph unicode="t" horiz-adv-x="682" d="M86 892l37 190h162l137 254h176l-48 -254h202l-35 -190h-205l-104 -535q-11 -55 -11 -90v-11q2 -38 25.5 -58.5t54.5 -20.5q39 0 115 13l-32 -182q-81 -24 -162 -24t-129 14t-82 42q-71 58 -71 169q0 71 16 157l102 526h-148z" />
<glyph unicode="u" horiz-adv-x="1251" d="M85 265q0 73 21 164l127 653h279l-118 -595q-26 -124 -26 -165q0 -129 152 -129q98 0 182 77q90 81 113 206l118 606h282l-166 -851q-16 -79 -38 -231h-268q0 18 10 91.5t14 93.5h-3q-146 -204 -373 -204q-152 0 -229 73t-77 211z" />
<glyph unicode="v" d="M110 1082h289l71 -605q4 -30 7 -66l6 -72q7 -90 9 -131q60 143 122 266l316 608h302l-610 -1082h-336z" />
<glyph unicode="w" horiz-adv-x="1593" d="M99 1082h258l13 -636q1 -27 1 -60v-131q13 34 26 65.5t26.5 65t26.5 60.5l294 636h301l42 -636q2 -26 2.5 -59t1.5 -64.5t1 -67.5q14 36 27 67.5t26 64.5t24 59l267 636h266l-495 -1082h-297l-43 660q-2 31 -2.5 71t-1.5 78t-1 81q-16 -43 -31.5 -81t-32 -78.5 t-31.5 -72.5l-302 -658h-297z" />
<glyph unicode="x" d="M-90 0l508 562l-279 520h292l173 -347l296 347h308l-483 -525l294 -557h-295l-186 383l-327 -383h-301z" />
<glyph unicode="y" d="M-85 -407l38 196q40 -9 82.5 -9t75 10t63.5 33q61 46 122 153l28 48l-212 1058h291l71 -497q6 -31 11 -80.5t9 -86.5t7 -70.5t5.5 -59.5t2.5 -37q5 11 16.5 36.5t27 58t32.5 68.5t33 69q23 49 47 98l259 501h300l-654 -1139q-127 -197 -197.5 -257.5t-135.5 -85.5 t-133 -25q-113 0 -189 18z" />
<glyph unicode="z" horiz-adv-x="1024" d="M-35 0l38 199l653 680h-480l40 203h809l-39 -201l-650 -676h567l-40 -205h-898z" />
<glyph unicode="{" horiz-adv-x="797" d="M19 433l38 192q231 4 274 227l67 338q29 146 112.5 220t237.5 74h194l-37 -190h-76q-122 0 -165 -116q-15 -38 -25 -89l-60 -310q-29 -147 -170 -217q-42 -21 -86 -30l-1 -4q115 -29 151 -124q12 -32 12 -58q0 -42 -5 -65l-65 -334q-9 -42 -9 -76q0 -105 122 -105h80 l-37 -191h-183q-181 0 -238 131q-18 41 -18 75q0 61 11 118l61 308q7 35 7 68q0 154 -192 158z" />
<glyph unicode="|" horiz-adv-x="573" d="M191 -425v1909h262v-1909h-262z" />
<glyph unicode="}" horiz-adv-x="797" d="M-155 -425l37 190h76q122 0 166 115q14 39 24 90l60 310q30 148 170 218q42 21 86 30l1 3q-115 29 -151 125q-12 32 -12 58q0 42 5 65l65 333q9 45 9 77q0 105 -122 105h-80l37 191h183q181 0 238 -131q18 -41 18 -75q0 -63 -11 -118l-61 -308q-7 -33 -7 -68 q0 -154 192 -158l-38 -192q-231 -4 -274 -228l-67 -337q-45 -224 -214 -276q-59 -19 -136 -19h-194z" />
<glyph unicode="~" horiz-adv-x="1196" d="M118 543v213q113 84 271 84q80 0 156.5 -22t140.5 -44q144 -51 222 -51q134 0 248 92v-219q-95 -65 -191 -76q-35 -4 -93 -4q-82 0 -213 45.5t-185.5 57.5t-100.5 12q-129 0 -255 -88z" />
<glyph unicode="&#xa1;" horiz-adv-x="682" d="M20 -327l222 981h230l-158 -981h-294zM247 812l53 270h288l-53 -270h-288z" />
<glyph unicode="&#xa2;" d="M76 560q0 105 18 179q64 279 226 407q128 100 318 109l31 154h162l-31 -161q150 -25 234 -126q77 -91 88 -226l-284 -23q-7 128 -78 169l-136 -701q99 37 148 195l271 -50q-101 -328 -459 -350l-32 -167h-162l32 174q-170 27 -261 141q-85 107 -85 276zM371 562 q0 -170 92 -216l137 709q-59 -17 -96 -63q-63 -80 -110 -262q-23 -115 -23 -168z" />
<glyph unicode="&#xa3;" d="M-51 0l39 205q189 76 229 276l25 123h-187l32 170h178l51 260q37 198 139 292q111 104 317 104q187 0 293 -90q94 -79 109 -210l-245 -48q-15 84 -56.5 120.5t-95.5 36.5t-83 -10t-51 -33q-44 -46 -65 -154l-53 -268h286l-33 -170h-286l-27 -126q-42 -195 -232 -268h408 q95 0 154.5 45t83.5 147l225 -39q-42 -179 -156 -271t-285 -92h-714z" />
<glyph unicode="&#xa4;" d="M72 328l135 137q-58 99 -58 219t60 221l-133 133l157 156l131 -133q101 59 220 59q121 0 219 -59l135 135l158 -158l-136 -135q60 -99 60 -219q0 -118 -58 -217l134 -133l-158 -160l-133 135q-100 -59 -221.5 -59t-219.5 57l-135 -137zM375 686q0 -86 61.5 -147.5 t147.5 -61.5q85 0 146.5 61.5t61.5 147.5t-61.5 147.5t-146.5 61.5q-86 0 -147.5 -61.5t-61.5 -147.5z" />
<glyph unicode="&#xa5;" d="M39 236l28 147h337l32 162h-337l28 146h276l-224 718h284l154 -596l390 596h294l-504 -718h276l-28 -146h-338l-32 -162h338l-28 -147h-338l-46 -236h-272l46 236h-336z" />
<glyph unicode="&#xa6;" horiz-adv-x="573" d="M192 324h262v-749h-262v749zM192 736v748h262v-748h-262z" />
<glyph unicode="&#xa7;" d="M-42 59l244 37q14 -83 72 -119t136.5 -36t128 7t89.5 24q88 40 88 123q0 84 -90 127q-47 23 -160 49t-171 49t-103 58q-97 78 -97 207q0 209 271 276q-145 80 -145 239q0 327 497 327q294 0 391 -145q35 -53 39 -129l-244 -25q-23 129 -207 129q-228 0 -228 -133 q0 -93 165 -138q45 -13 99 -25.5t117.5 -35.5t114.5 -57q114 -78 114 -200q0 -178 -146 -257q-46 -25 -103 -43q132 -73 132 -226q0 -276 -310 -348q-100 -23 -215 -23t-197 15.5t-142 49.5q-121 69 -140 223zM346 626q0 -102 158 -147q46 -13 96 -25q230 18 230 144 q0 69 -55 108q-55 40 -204 74q-103 -6 -164 -45t-61 -109z" />
<glyph unicode="&#xa8;" horiz-adv-x="682" d="M135 1199l42 219h214l-43 -219h-213zM568 1199l43 219h217l-43 -219h-217z" />
<glyph unicode="&#xa9;" horiz-adv-x="1509" d="M62 707q0 195 99 365q147 251 432 332q92 26 217 26t256.5 -57t230 -155t155 -229.5t56.5 -256.5t-26 -217.5t-73 -173t-112.5 -146t-146.5 -112.5q-169 -99 -365 -99q-296 0 -511 212q-133 131 -186 318q-26 93 -26 193zM177 726.5q0 -146.5 48 -257.5t131 -194 q177 -179 429 -179q253 0 432 179t179 431q0 127 -48 237.5t-131 192.5q-180 179 -432 179q-163 0 -307 -83q-135 -79 -218 -218q-83 -141 -83 -287.5zM394 709q0 300 220 386q75 29 164 29t147 -18.5t99 -49.5q75 -57 118 -161l-156 -41q-54 129 -192 129q-220 0 -220 -274 q0 -199 125 -262q42 -21 99 -21q136 0 196 143l160 -47q-49 -105 -105 -151q-107 -86 -251 -86q-200 0 -306 119q-98 111 -98 305z" />
<glyph unicode="&#xaa;" horiz-adv-x="758" d="M104 882.5q0 79.5 32 127t82 73.5q83 42 239 45l123 2l5 26q9 36 9 61q0 82 -82 82q-109 0 -132 -91l-171 19q20 88 94 139.5t210.5 51.5t199 -46.5t62.5 -144.5q0 -20 -5.5 -48t-10.5 -55l-47 -229q-1 -11 -3 -23.5t-2 -23.5q0 -43 52 -43q17 0 41 6l-10 -102 q-35 -12 -106 -12q-142 0 -142 98q0 26 3 41h-3q-50 -77 -86 -102q-65 -45 -133.5 -45t-106 16.5t-62.5 43.5q-50 54 -50 133.5zM298 914q0 -51 25.5 -74.5t53.5 -23.5t51 7.5t46 24.5q51 40 71 121l16 60l-98 -2q-165 -4 -165 -113z" />
<glyph unicode="&#xab;" d="M72 500l14 71l323 367h239l-6 -41l-329 -366l188 -353l-5 -39h-232zM530 500l14 71l323 367h239l-6 -41l-329 -366l188 -353l-5 -39h-232z" />
<glyph unicode="&#xac;" horiz-adv-x="1196" d="M75 569v224h1027v-652h-224v428h-803z" />
<glyph unicode="&#xad;" horiz-adv-x="682" d="M56 409l47 244h520l-47 -244h-520z" />
<glyph unicode="&#xae;" horiz-adv-x="1509" d="M62 707q0 195 99 365q147 251 432 332q92 26 217 26t256.5 -57t230 -155t155 -229.5t56.5 -256.5t-26 -217.5t-73 -173t-112.5 -146t-146.5 -112.5q-169 -99 -365 -99q-296 0 -511 212q-133 131 -186 318q-26 93 -26 193zM177 726.5q0 -146.5 48 -257.5t131 -194 q177 -179 429 -179q253 0 432 179t179 431q0 127 -48 237.5t-131 192.5q-180 179 -432 179q-163 0 -307 -83q-135 -79 -218 -218q-83 -141 -83 -287.5zM480 297v815h330q153 0 229 -64.5t76 -167.5q0 -191 -174 -247l213 -336h-201l-178 313h-117v-313h-178zM658 739h144 q66 0 99.5 35.5t33.5 93.5q0 117 -144 117h-133v-246z" />
<glyph unicode="&#xaf;" horiz-adv-x="1131" d="M-17 1452v94h1165v-94h-1165z" />
<glyph unicode="&#xb0;" horiz-adv-x="819" d="M189 1110q0 133 93 224t227 91t227 -91q94 -92 94 -224q0 -66 -25.5 -123.5t-68.5 -100.5q-94 -91 -227 -91t-226.5 91.5t-93.5 223.5zM343 1110q0 -68 49 -118q48 -50 117 -50q68 0 116 50q47 49 47 118q0 35 -12.5 65.5t-34.5 52.5q-46 48 -116 48t-117 -48 q-49 -48 -49 -118z" />
<glyph unicode="&#xb1;" horiz-adv-x="1124" d="M87 0v223h1027v-223h-1027zM87 707v223h401v340h224v-340h402v-223h-402v-341h-224v341h-401z" />
<glyph unicode="&#xb2;" horiz-adv-x="682" d="M71 696l24 120q73 115 278 228q108 60 138.5 102t30.5 78t-22 55.5t-57 19.5q-88 0 -114 -97l-162 34q31 99 100 144.5t192 45.5q120 0 186 -54q61 -51 61 -122t-25 -115.5t-63.5 -79t-86.5 -61.5t-94 -52q-115 -61 -146 -103h349l-25 -143h-564z" />
<glyph unicode="&#xb3;" horiz-adv-x="682" d="M96 885l181 25q17 -99 108 -99q46 0 78.5 26.5t32.5 77.5q0 85 -111 85h-68l24 126h60q62 0 100 25t38 70q0 83 -83 83q-90 0 -115 -94l-163 24q41 155 193 183q48 9 105 9q118 0 184 -44.5t66 -134.5q0 -110 -104 -159q-35 -17 -79 -21l-1 -2q64 -12 103 -50.5t39 -95.5 t-22.5 -98.5t-63.5 -70.5q-85 -62 -229 -62q-246 0 -273 197z" />
<glyph unicode="&#xb4;" horiz-adv-x="682" d="M255 1183l6 31l247 288h277l-8 -43l-376 -276h-146z" />
<glyph unicode="&#xb5;" horiz-adv-x="1180" d="M-47 -425l291 1507h281l-118 -605q-11 -59 -13 -119q0 -165 125 -165q84 0 145 85q57 80 82 226l112 578h281l-147 -757q-9 -45 -9 -65q0 -69 52 -69q21 0 44 7l-16 -193q-106 -25 -171.5 -25t-97.5 9.5t-50 27.5q-34 33 -34 105v21q0 10 2 21h-4q-42 -87 -95 -135.5 t-134 -48.5q-118 0 -151 90h-6q-7 -50 -9 -65q-2 -21 -7 -50l-73 -380h-280z" />
<glyph unicode="&#xb6;" d="M106 1049q0 168 98 263q98 97 273 97h629v-143h-131v-1530h-156v1530h-195v-1530h-155v958q-165 0 -262 89q-101 93 -101 266z" />
<glyph unicode="&#xb7;" horiz-adv-x="682" d="M189 531l59 305h288l-59 -305h-288z" />
<glyph unicode="&#xb8;" horiz-adv-x="682" d="M88 -419l29 117q42 -7 103 -7q134 0 134 77q0 63 -110 63h-26q-12 0 -27 -2l98 171h141l-48 -83q70 -1 113.5 -33.5t43.5 -98.5q0 -97 -84 -153.5t-261 -56.5q-50 0 -106 6z" />
<glyph unicode="&#xb9;" horiz-adv-x="682" d="M98 693l23 121h184l91 468l-194 -108l24 122l202 117h175l-116 -599h170l-23 -121h-536z" />
<glyph unicode="&#xba;" horiz-adv-x="748" d="M102 962.5q0 117.5 30.5 198.5t85.5 138q113 119 281.5 119t248.5 -73.5t80 -190.5t-32 -201t-88 -143q-116 -121 -299 -121q-140 0 -223 77q-84 79 -84 196.5zM306 987q0 -161 123 -161q64 0 94 22q60 46 87 164q10 39 15 116q0 152 -124 152q-65 0 -97 -26 q-74 -57 -94 -216q-4 -27 -4 -51z" />
<glyph unicode="&#xbb;" d="M38 139l6 41l329 366l-188 353l5 39h232l192 -361l-14 -71l-323 -367h-239zM496 139l6 41l329 366l-188 353l5 39h232l192 -361l-14 -71l-323 -367h-239z" />
<glyph unicode="&#xbc;" horiz-adv-x="1708" d="M98 693l23 121h184l91 468l-194 -108l24 122l202 117h175l-116 -599h170l-23 -121h-536zM232 0l1086 1409h199l-1088 -1409h-197zM890 141l28 148l395 432h219l-84 -437h103l-28 -143h-103l-27 -140h-183l27 140h-347zM1063 284h202l62 299q-7 -7 -16.5 -20.5 t-20.5 -28.5q-28 -36 -49 -59z" />
<glyph unicode="&#xbd;" horiz-adv-x="1708" d="M98 693l23 121h184l91 468l-194 -108l24 122l202 117h175l-116 -599h170l-23 -121h-536zM232 0l1086 1409h199l-1088 -1409h-197zM949 1l24 120q73 115 278 228q108 60 138.5 102t30.5 78t-22 55.5t-57 19.5q-88 0 -114 -97l-162 34q31 99 100 144.5t192 45.5 q120 0 186 -54q61 -51 61 -122t-25 -115.5t-63.5 -79t-86.5 -61.5t-94 -52q-115 -61 -146 -103h349l-25 -143h-564z" />
<glyph unicode="&#xbe;" horiz-adv-x="1708" d="M110 885l181 25q17 -99 108 -99q46 0 78.5 26.5t32.5 77.5q0 85 -111 85h-68l24 126h60q62 0 100 25t38 70q0 83 -83 83q-90 0 -115 -94l-163 24q41 155 193 183q48 9 105 9q118 0 184 -44.5t66 -134.5q0 -110 -104 -159q-35 -17 -79 -21l-1 -2q64 -12 103 -50.5 t39 -95.5t-22.5 -98.5t-63.5 -70.5q-85 -62 -229 -62q-246 0 -273 197zM232 0l1086 1409h199l-1088 -1409h-197zM890 141l28 148l395 432h219l-84 -437h103l-28 -143h-103l-27 -140h-183l27 140h-347zM1063 284h202l62 299q-7 -7 -16.5 -20.5t-20.5 -28.5q-28 -36 -49 -59z " />
<glyph unicode="&#xbf;" horiz-adv-x="1251" d="M26 7q0 215 236 362q65 41 132 78q88 58 114 85q52 54 61 124h267q-34 -181 -185 -288q-48 -34 -111.5 -73.5t-109 -72.5t-72.5 -64q-49 -55 -49 -124.5t48 -111t149 -41.5q227 0 279 193l266 -40q-117 -382 -561 -382q-211 0 -336 92q-128 94 -128 263zM585 812l52 270 h289l-52 -270h-289z" />
<glyph unicode="&#xc0;" horiz-adv-x="1479" d="M-42 0l787 1409h348l238 -1409h-292l-55 360h-537l-195 -360h-294zM566 582h395l-67 452l-5 38q-13 97 -13 120q-21 -64 -98 -212zM650 1765l9 43h238l203 -247l-7 -31h-139z" />
<glyph unicode="&#xc1;" horiz-adv-x="1479" d="M-42 0l787 1409h348l238 -1409h-292l-55 360h-537l-195 -360h-294zM566 582h395l-67 452l-5 38q-13 97 -13 120q-21 -64 -98 -212zM764 1530l7 31l270 247h267l-9 -43l-386 -235h-149z" />
<glyph unicode="&#xc2;" horiz-adv-x="1479" d="M-42 0l787 1409h348l238 -1409h-292l-55 360h-537l-195 -360h-294zM547 1530l5 29l311 276h229l196 -276l-5 -29h-149l-174 151h-4l-240 -151h-169zM566 582h395l-67 452l-5 38q-13 97 -13 120q-21 -64 -98 -212z" />
<glyph unicode="&#xc3;" horiz-adv-x="1479" d="M-42 0l787 1409h348l238 -1409h-292l-55 360h-537l-195 -360h-294zM511 1530q30 124 70 179.5t89 84.5t108 29t100.5 -19t78.5 -42.5t70 -42.5t60 -19t45.5 8.5t32.5 24.5q25 29 47 90h135q-30 -124 -70 -179.5t-88.5 -84.5t-107 -29t-99 19t-78 42.5t-71.5 42.5t-62 19 t-46.5 -8.5t-32.5 -24.5q-23 -26 -45 -90h-136zM566 582h395l-67 452l-5 38q-13 97 -13 120q-21 -64 -98 -212z" />
<glyph unicode="&#xc4;" horiz-adv-x="1479" d="M-42 0l787 1409h348l238 -1409h-292l-55 360h-537l-195 -360h-294zM566 582h395l-67 452l-5 38q-13 97 -13 120q-21 -64 -98 -212zM607 1530l42 219h214l-43 -219h-213zM1040 1530l43 219h217l-43 -219h-217z" />
<glyph unicode="&#xc5;" horiz-adv-x="1479" d="M-42 0l787 1409h348l238 -1409h-292l-55 360h-537l-195 -360h-294zM566 582h395l-67 452l-5 38q-13 97 -13 120q-21 -64 -98 -212zM672 1538q0 105 74.5 179.5t179.5 74.5t179.5 -74.5t74.5 -179.5q0 -53 -20 -99.5t-55 -80.5q-73 -74 -179 -74t-179 74q-75 74 -75 180z M801 1550.5q0 -39.5 9.5 -63t26.5 -40.5q37 -37 89 -37q53 0 80 27t37 50.5t10 50t-10 49t-27 39.5q-37 37 -90 37q-52 0 -79 -27q-46 -46 -46 -85.5z" />
<glyph unicode="&#xc6;" horiz-adv-x="2048" d="M-97 0l965 1409h1231l-45 -227h-701l-69 -355h639l-43 -221h-639l-73 -379h742l-44 -227h-1029l70 360h-450l-242 -360h-312zM602 582h348l118 610h-61q-5 -9 -23.5 -37t-39.5 -61q-57 -89 -73 -111z" />
<glyph unicode="&#xc7;" horiz-adv-x="1479" d="M81 569q0 376 223 617q145 155 367 214q110 30 242 30t231.5 -32t168.5 -86q126 -99 171 -274l-274 -71q-43 157 -190 211q-53 20 -150 20t-193.5 -45.5t-161.5 -128.5q-133 -166 -133 -451q0 -261 187 -337q61 -25 143 -25q266 0 418 258l227 -117q-210 -372 -665 -372 q-301 0 -463 172q-148 156 -148 417zM437 -419l29 117q42 -7 103 -7q134 0 134 77q0 63 -110 63h-26q-12 0 -27 -2l98 171h141l-48 -83q70 -1 113.5 -33.5t43.5 -98.5q0 -97 -84 -153.5t-261 -56.5q-50 0 -106 6z" />
<glyph unicode="&#xc8;" horiz-adv-x="1366" d="M36 0l273 1409h1108l-44 -228h-813l-69 -354h752l-44 -228h-752l-72 -371h854l-45 -228h-1148zM556 1765l9 43h238l203 -247l-7 -31h-139z" />
<glyph unicode="&#xc9;" horiz-adv-x="1366" d="M36 0l273 1409h1108l-44 -228h-813l-69 -354h752l-44 -228h-752l-72 -371h854l-45 -228h-1148zM714 1530l7 31l270 247h267l-9 -43l-386 -235h-149z" />
<glyph unicode="&#xca;" horiz-adv-x="1366" d="M36 0l273 1409h1108l-44 -228h-813l-69 -354h752l-44 -228h-752l-72 -371h854l-45 -228h-1148zM513 1530l5 29l311 276h229l196 -276l-5 -29h-149l-174 151h-4l-240 -151h-169z" />
<glyph unicode="&#xcb;" horiz-adv-x="1366" d="M36 0l273 1409h1108l-44 -228h-813l-69 -354h752l-44 -228h-752l-72 -371h854l-45 -228h-1148zM562 1530l42 219h214l-43 -219h-213zM995 1530l43 219h217l-43 -219h-217z" />
<glyph unicode="&#xcc;" horiz-adv-x="569" d="M36 0l273 1409h295l-274 -1409h-294zM178 1765l9 43h238l203 -247l-7 -31h-139z" />
<glyph unicode="&#xcd;" horiz-adv-x="569" d="M36 0l273 1409h295l-274 -1409h-294zM326 1530l7 31l270 247h267l-9 -43l-386 -235h-149z" />
<glyph unicode="&#xce;" horiz-adv-x="569" d="M36 0l273 1409h295l-274 -1409h-294zM105 1530l5 29l311 276h229l196 -276l-5 -29h-149l-174 151h-4l-240 -151h-169z" />
<glyph unicode="&#xcf;" horiz-adv-x="569" d="M36 0l273 1409h295l-274 -1409h-294zM151 1530l42 219h214l-43 -219h-213zM584 1530l43 219h217l-43 -219h-217z" />
<glyph unicode="&#xd0;" horiz-adv-x="1479" d="M23 594l42 219h129l116 596h424q500 0 640 -339q47 -113 47 -254.5t-30.5 -253t-85 -201t-130 -157t-165.5 -112.5q-179 -92 -396 -92h-578l115 594h-128zM375 228h230q239 0 386 146q154 152 154 420q0 288 -237 363q-76 24 -172 24h-176l-72 -368h357l-44 -219h-355z " />
<glyph unicode="&#xd1;" horiz-adv-x="1479" d="M36 0l274 1409h350l377 -1141q6 39 11 79q13 88 30 177l174 885h262l-274 -1409h-356l-374 1131q-23 -162 -38 -239l-174 -892h-262zM544 1530q30 124 70 179.5t89 84.5t108 29t100.5 -19t78.5 -42.5t70 -42.5t60 -19t45.5 8.5t32.5 24.5q25 29 47 90h135 q-30 -124 -70 -179.5t-88.5 -84.5t-107 -29t-99 19t-78 42.5t-71.5 42.5t-62 19t-46.5 -8.5t-32.5 -24.5q-23 -26 -45 -90h-136z" />
<glyph unicode="&#xd2;" horiz-adv-x="1593" d="M100 573q0 252 119 464q141 251 411 345q135 48 290.5 48t272.5 -40.5t199 -115.5q167 -156 167 -423t-121 -479q-143 -251 -414 -345q-136 -47 -293 -47t-274 43.5t-197 122.5q-160 158 -160 427zM400 581q0 -184 90 -276.5t251 -92.5q411 0 502 468q12 62 12 151 t-24 158t-68 115.5t-107.5 69.5t-156 23t-176.5 -32t-145 -92q-122 -118 -165 -346q-13 -69 -13 -146zM684 1765l9 43h238l203 -247l-7 -31h-139z" />
<glyph unicode="&#xd3;" horiz-adv-x="1593" d="M100 573q0 252 119 464q141 251 411 345q135 48 290.5 48t272.5 -40.5t199 -115.5q167 -156 167 -423t-121 -479q-143 -251 -414 -345q-136 -47 -293 -47t-274 43.5t-197 122.5q-160 158 -160 427zM400 581q0 -184 90 -276.5t251 -92.5q411 0 502 468q12 62 12 151 t-24 158t-68 115.5t-107.5 69.5t-156 23t-176.5 -32t-145 -92q-122 -118 -165 -346q-13 -69 -13 -146zM857 1530l7 31l270 247h267l-9 -43l-386 -235h-149z" />
<glyph unicode="&#xd4;" horiz-adv-x="1593" d="M100 573q0 252 119 464q141 251 411 345q135 48 290.5 48t272.5 -40.5t199 -115.5q167 -156 167 -423t-121 -479q-143 -251 -414 -345q-136 -47 -293 -47t-274 43.5t-197 122.5q-160 158 -160 427zM400 581q0 -184 90 -276.5t251 -92.5q411 0 502 468q12 62 12 151 t-24 158t-68 115.5t-107.5 69.5t-156 23t-176.5 -32t-145 -92q-122 -118 -165 -346q-13 -69 -13 -146zM576 1530l5 29l311 276h229l196 -276l-5 -29h-149l-174 151h-4l-240 -151h-169z" />
<glyph unicode="&#xd5;" horiz-adv-x="1593" d="M100 573q0 252 119 464q141 251 411 345q135 48 290.5 48t272.5 -40.5t199 -115.5q167 -156 167 -423t-121 -479q-143 -251 -414 -345q-136 -47 -293 -47t-274 43.5t-197 122.5q-160 158 -160 427zM400 581q0 -184 90 -276.5t251 -92.5q411 0 502 468q12 62 12 151 t-24 158t-68 115.5t-107.5 69.5t-156 23t-176.5 -32t-145 -92q-122 -118 -165 -346q-13 -69 -13 -146zM580 1530q30 124 70 179.5t89 84.5t108 29t100.5 -19t78.5 -42.5t70 -42.5t60 -19t45.5 8.5t32.5 24.5q25 29 47 90h135q-30 -124 -70 -179.5t-88.5 -84.5t-107 -29 t-99 19t-78 42.5t-71.5 42.5t-62 19t-46.5 -8.5t-32.5 -24.5q-23 -26 -45 -90h-136z" />
<glyph unicode="&#xd6;" horiz-adv-x="1593" d="M100 573q0 252 119 464q141 251 411 345q135 48 290.5 48t272.5 -40.5t199 -115.5q167 -156 167 -423t-121 -479q-143 -251 -414 -345q-136 -47 -293 -47t-274 43.5t-197 122.5q-160 158 -160 427zM400 581q0 -184 90 -276.5t251 -92.5q411 0 502 468q12 62 12 151 t-24 158t-68 115.5t-107.5 69.5t-156 23t-176.5 -32t-145 -92q-122 -118 -165 -346q-13 -69 -13 -146zM649 1530l42 219h214l-43 -219h-213zM1082 1530l43 219h217l-43 -219h-217z" />
<glyph unicode="&#xd7;" horiz-adv-x="1196" d="M126 326l356 358l-352 352l158 156l352 -350l352 352l158 -158l-352 -354l352 -350l-158 -160l-352 354l-356 -358z" />
<glyph unicode="&#xd8;" horiz-adv-x="1593" d="M35 -53l205 220q-140 158 -140 406q0 252 119 464q141 251 411 345q135 48 298 48q237 0 396 -104l131 140h203l-223 -239q124 -148 124 -376q0 -267 -121 -479q-143 -251 -414 -345q-136 -47 -297 -47q-222 0 -370 91l-115 -124h-207zM400 559q0 -99 39 -180l699 748 q-87 70 -209 70t-206 -32t-145 -92q-122 -118 -165 -346q-13 -69 -13 -168zM538 264q79 -52 195 -52t200 32.5t146 93.5t102.5 147.5t57 171.5t16.5 177.5t-29 167.5z" />
<glyph unicode="&#xd9;" horiz-adv-x="1479" d="M119 431q0 95 23 204l148 774h295l-153 -810q-18 -87 -18 -156.5t20 -110t56.5 -67.5t87 -40.5t120 -13.5t130.5 17t106 56q88 75 124 257l168 868h295l-171 -879q-83 -419 -418 -517q-114 -33 -251.5 -33t-240.5 29.5t-174 86.5q-147 118 -147 335zM623 1765l9 43h238 l203 -247l-7 -31h-139z" />
<glyph unicode="&#xda;" horiz-adv-x="1479" d="M119 431q0 95 23 204l148 774h295l-153 -810q-18 -87 -18 -156.5t20 -110t56.5 -67.5t87 -40.5t120 -13.5t130.5 17t106 56q88 75 124 257l168 868h295l-171 -879q-83 -419 -418 -517q-114 -33 -251.5 -33t-240.5 29.5t-174 86.5q-147 118 -147 335zM789 1530l7 31 l270 247h267l-9 -43l-386 -235h-149z" />
<glyph unicode="&#xdb;" horiz-adv-x="1479" d="M119 431q0 95 23 204l148 774h295l-153 -810q-18 -87 -18 -156.5t20 -110t56.5 -67.5t87 -40.5t120 -13.5t130.5 17t106 56q88 75 124 257l168 868h295l-171 -879q-83 -419 -418 -517q-114 -33 -251.5 -33t-240.5 29.5t-174 86.5q-147 118 -147 335zM549 1530l5 29 l311 276h229l196 -276l-5 -29h-149l-174 151h-4l-240 -151h-169z" />
<glyph unicode="&#xdc;" horiz-adv-x="1479" d="M119 431q0 95 23 204l148 774h295l-153 -810q-18 -87 -18 -156.5t20 -110t56.5 -67.5t87 -40.5t120 -13.5t130.5 17t106 56q88 75 124 257l168 868h295l-171 -879q-83 -419 -418 -517q-114 -33 -251.5 -33t-240.5 29.5t-174 86.5q-147 118 -147 335zM600 1530l42 219h214 l-43 -219h-213zM1033 1530l43 219h217l-43 -219h-217z" />
<glyph unicode="&#xdd;" horiz-adv-x="1366" d="M172 1409h292l259 -605l474 605h323l-684 -831l-112 -578h-294l112 578zM716 1530l7 31l270 247h267l-9 -43l-386 -235h-149z" />
<glyph unicode="&#xde;" horiz-adv-x="1366" d="M36 0l274 1409h295l-44 -225h246q247 0 383 -113q136 -112 136 -309q0 -226 -155 -360q-153 -131 -409 -131h-378l-53 -271h-295zM428 498h289q155 0 232.5 58t77.5 190q0 209 -248 209h-262z" />
<glyph unicode="&#xdf;" horiz-adv-x="1251" d="M35 0l200 1027q50 237 188.5 347t373.5 110q179 0 284 -76q106 -77 106 -212q0 -165 -143 -272q-92 -69 -118 -100t-26 -66t18.5 -60.5t46.5 -49t61 -48t61 -58.5q65 -79 65 -180t-29 -168.5t-83 -115.5q-110 -98 -291 -98q-203 0 -321 57l68 186q124 -57 214 -57 t131.5 42t41.5 100.5t-18 89t-45.5 55.5t-59 48t-58.5 52q-64 67 -64 165t76 174q33 33 70.5 61t70.5 59q76 71 76 156q0 53 -36.5 83t-98.5 30t-106.5 -14t-79.5 -45q-70 -63 -97 -201l-197 -1021h-281z" />
<glyph unicode="&#xe0;" d="M10 278q0 334 413 372q65 6 128 7l191 3l8 36q13 56 13 108.5t-34 83.5t-78 31t-75 -4t-58 -19q-63 -33 -85 -119l-263 31q51 212 284 273q81 21 187 21q207 0 303.5 -73t96.5 -222q0 -37 -24 -157l-71 -353q-8 -45 -8 -72q0 -65 79 -65q30 0 62 7l-14 -155 q-58 -22 -165.5 -22t-161.5 42t-54 111q0 37 5 64h-6q-75 -117 -147 -167q-87 -60 -219 -60q-147 0 -231 92q-76 82 -76 206zM297 325q0 -111 91 -141q26 -8 55 -8q118 0 199 122q30 46 47 113l22 92h-162q-117 -2 -184.5 -48t-67.5 -130zM393 1459l8 43h258l195 -288 l-6 -31h-148z" />
<glyph unicode="&#xe1;" d="M10 278q0 334 413 372q65 6 128 7l191 3l8 36q13 56 13 108.5t-34 83.5t-78 31t-75 -4t-58 -19q-63 -33 -85 -119l-263 31q51 212 284 273q81 21 187 21q207 0 303.5 -73t96.5 -222q0 -37 -24 -157l-71 -353q-8 -45 -8 -72q0 -65 79 -65q30 0 62 7l-14 -155 q-58 -22 -165.5 -22t-161.5 42t-54 111q0 37 5 64h-6q-75 -117 -147 -167q-87 -60 -219 -60q-147 0 -231 92q-76 82 -76 206zM297 325q0 -111 91 -141q26 -8 55 -8q118 0 199 122q30 46 47 113l22 92h-162q-117 -2 -184.5 -48t-67.5 -130zM542 1183l6 31l247 288h277l-8 -43 l-376 -276h-146z" />
<glyph unicode="&#xe2;" d="M10 278q0 334 413 372q65 6 128 7l191 3l8 36q13 56 13 108.5t-34 83.5t-78 31t-75 -4t-58 -19q-63 -33 -85 -119l-263 31q51 212 284 273q81 21 187 21q207 0 303.5 -73t96.5 -222q0 -37 -24 -157l-71 -353q-8 -45 -8 -72q0 -65 79 -65q30 0 62 7l-14 -155 q-58 -22 -165.5 -22t-161.5 42t-54 111q0 37 5 64h-6q-75 -117 -147 -167q-87 -60 -219 -60q-147 0 -231 92q-76 82 -76 206zM297 325q0 -111 91 -141q26 -8 55 -8q118 0 199 122q30 46 47 113l22 92h-162q-117 -2 -184.5 -48t-67.5 -130zM307 1183l5 28l320 318h229 l188 -318l-5 -28h-150l-166 192h-4l-248 -192h-169z" />
<glyph unicode="&#xe3;" d="M10 278q0 334 413 372q65 6 128 7l191 3l8 36q13 56 13 108.5t-34 83.5t-78 31t-75 -4t-58 -19q-63 -33 -85 -119l-263 31q51 212 284 273q81 21 187 21q207 0 303.5 -73t96.5 -222q0 -37 -24 -157l-71 -353q-8 -45 -8 -72q0 -65 79 -65q30 0 62 7l-14 -155 q-58 -22 -165.5 -22t-161.5 42t-54 111q0 37 5 64h-6q-75 -117 -147 -167q-87 -60 -219 -60q-147 0 -231 92q-76 82 -76 206zM272 1183q30 124 70 179.5t89 84.5t108 29t100.5 -19t78.5 -42.5t70 -42.5t60 -19t45.5 8.5t32.5 24.5q25 29 47 90h135q-30 -124 -70 -179.5 t-88.5 -84.5t-107 -29t-99 19t-78 42.5t-71.5 42.5t-62 19t-46.5 -8.5t-32.5 -24.5q-23 -26 -45 -90h-136zM297 325q0 -111 91 -141q26 -8 55 -8q118 0 199 122q30 46 47 113l22 92h-162q-117 -2 -184.5 -48t-67.5 -130z" />
<glyph unicode="&#xe4;" d="M10 278q0 334 413 372q65 6 128 7l191 3l8 36q13 56 13 108.5t-34 83.5t-78 31t-75 -4t-58 -19q-63 -33 -85 -119l-263 31q51 212 284 273q81 21 187 21q207 0 303.5 -73t96.5 -222q0 -37 -24 -157l-71 -353q-8 -45 -8 -72q0 -65 79 -65q30 0 62 7l-14 -155 q-58 -22 -165.5 -22t-161.5 42t-54 111q0 37 5 64h-6q-75 -117 -147 -167q-87 -60 -219 -60q-147 0 -231 92q-76 82 -76 206zM297 325q0 -111 91 -141q26 -8 55 -8q118 0 199 122q30 46 47 113l22 92h-162q-117 -2 -184.5 -48t-67.5 -130zM351 1199l42 219h214l-43 -219 h-213zM784 1199l43 219h217l-43 -219h-217z" />
<glyph unicode="&#xe5;" d="M10 278q0 334 413 372q65 6 128 7l191 3l8 36q13 56 13 108.5t-34 83.5t-78 31t-75 -4t-58 -19q-63 -33 -85 -119l-263 31q51 212 284 273q81 21 187 21q207 0 303.5 -73t96.5 -222q0 -37 -24 -157l-71 -353q-8 -45 -8 -72q0 -65 79 -65q30 0 62 7l-14 -155 q-58 -22 -165.5 -22t-161.5 42t-54 111q0 37 5 64h-6q-75 -117 -147 -167q-87 -60 -219 -60q-147 0 -231 92q-76 82 -76 206zM297 325q0 -111 91 -141q26 -8 55 -8q118 0 199 122q30 46 47 113l22 92h-162q-117 -2 -184.5 -48t-67.5 -130zM453 1431q0 105 74.5 179.5 t179.5 74.5t179.5 -74.5t74.5 -179.5q0 -53 -20 -99.5t-55 -80.5q-73 -74 -179 -74t-179 74q-75 74 -75 180zM582 1443.5q0 -39.5 9.5 -63t26.5 -40.5q37 -37 89 -37q53 0 80 27t37 50.5t10 50t-10 49t-27 39.5q-37 37 -90 37q-52 0 -79 -27q-46 -46 -46 -85.5z" />
<glyph unicode="&#xe6;" horiz-adv-x="1821" d="M42 278q0 382 541 382h191l8 36q13 56 13 108.5t-34 83.5t-78 31t-75 -4t-58 -19q-63 -33 -85 -119l-263 31q51 212 284 273q81 21 187 21q207 0 300 -113q140 113 342 113q217 0 330 -114q106 -107 106 -301q0 -95 -24 -211h-700q-7 -38 -7 -89q0 -219 184 -219 q147 0 213 169l245 -74q-67 -143 -161 -206q-114 -77 -316 -77q-297 0 -394 219q-120 -188 -321 -212q-60 -7 -129.5 -7t-127 25t-95.5 67q-76 82 -76 206zM341 325q0 -113 81 -141q24 -8 53 -8q118 0 199 122q30 46 47 113l22 89h-161q-113 0 -177 -46t-64 -129zM1060 663 h431q3 24 3 56q0 107 -49.5 156t-129.5 49q-135 0 -209 -132q-29 -50 -46 -129z" />
<glyph unicode="&#xe7;" d="M63 405q0 105 21.5 197.5t60 174t86 139t102.5 94t113 56.5q100 36 220.5 36t198.5 -29t131 -79q100 -94 113 -253l-284 -23q-11 191 -167 191q-110 0 -171 -77q-59 -75 -106 -257q-23 -115 -23 -168q0 -234 178 -234q158 0 223 208l271 -50q-107 -351 -510 -351 q-226 0 -344 118q-113 113 -113 307zM280 -419l29 117q42 -7 103 -7q134 0 134 77q0 63 -110 63h-26q-12 0 -27 -2l98 171h141l-48 -83q70 -1 113.5 -33.5t43.5 -98.5q0 -97 -84 -153.5t-261 -56.5q-50 0 -106 6z" />
<glyph unicode="&#xe8;" d="M63 418q0 320 165 506q158 178 418 178q217 0 330 -114q106 -107 106 -301q0 -95 -24 -211h-700q-7 -38 -7 -89q0 -219 184 -219q147 0 213 169l245 -74q-67 -143 -161 -206q-114 -77 -316 -77q-216 0 -336 119q-117 115 -117 319zM391 663h431q3 24 3 56 q0 107 -49.5 156t-129.5 49q-135 0 -210 -132q-28 -50 -45 -129zM408 1459l8 43h258l195 -288l-6 -31h-148z" />
<glyph unicode="&#xe9;" d="M63 418q0 320 165 506q158 178 418 178q217 0 330 -114q106 -107 106 -301q0 -95 -24 -211h-700q-7 -38 -7 -89q0 -219 184 -219q147 0 213 169l245 -74q-67 -143 -161 -206q-114 -77 -316 -77q-216 0 -336 119q-117 115 -117 319zM391 663h431q3 24 3 56 q0 107 -49.5 156t-129.5 49q-135 0 -210 -132q-28 -50 -45 -129zM524 1183l6 31l247 288h277l-8 -43l-376 -276h-146z" />
<glyph unicode="&#xea;" d="M63 418q0 320 165 506q158 178 418 178q217 0 330 -114q106 -107 106 -301q0 -95 -24 -211h-700q-7 -38 -7 -89q0 -219 184 -219q147 0 213 169l245 -74q-67 -143 -161 -206q-114 -77 -316 -77q-216 0 -336 119q-117 115 -117 319zM307 1183l5 28l320 318h229l188 -318 l-5 -28h-150l-166 192h-4l-248 -192h-169zM391 663h431q3 24 3 56q0 107 -49.5 156t-129.5 49q-135 0 -210 -132q-28 -50 -45 -129z" />
<glyph unicode="&#xeb;" d="M63 418q0 320 165 506q158 178 418 178q217 0 330 -114q106 -107 106 -301q0 -95 -24 -211h-700q-7 -38 -7 -89q0 -219 184 -219q147 0 213 169l245 -74q-67 -143 -161 -206q-114 -77 -316 -77q-216 0 -336 119q-117 115 -117 319zM362 1199l42 219h214l-43 -219h-213z M391 663h431q3 24 3 56q0 107 -49.5 156t-129.5 49q-135 0 -210 -132q-28 -50 -45 -129zM795 1199l43 219h217l-43 -219h-217z" />
<glyph unicode="&#xec;" horiz-adv-x="569" d="M35 0l210 1082h281l-211 -1082h-280zM98 1459l8 43h258l195 -288l-6 -31h-148z" />
<glyph unicode="&#xed;" horiz-adv-x="569" d="M35 0l210 1082h281l-211 -1082h-280zM258 1183l6 31l247 288h277l-8 -43l-376 -276h-146z" />
<glyph unicode="&#xee;" horiz-adv-x="569" d="M27 1183l5 28l320 318h229l188 -318l-5 -28h-150l-166 192h-4l-248 -192h-169zM35 0l210 1082h281l-211 -1082h-280z" />
<glyph unicode="&#xef;" horiz-adv-x="569" d="M35 0l210 1082h281l-211 -1082h-280zM81 1199l42 219h214l-43 -219h-213zM514 1199l43 219h217l-43 -219h-217z" />
<glyph unicode="&#xf0;" horiz-adv-x="1251" d="M58 410q0 254 155 409q160 160 436 160q97 0 187 -39q27 -11 45 -24q-32 140 -125 264l-277 -111l33 179l149 57q-124 121 -222 179h293q72 -38 141 -94l295 109l-32 -176l-145 -54q92 -119 125 -214q56 -161 56 -328t-41 -305t-123 -236q-171 -206 -481 -206 q-227 0 -353 124q-116 116 -116 306zM352 395q0 -148 110 -203q38 -20 99 -20t118.5 33.5t99.5 92.5q89 123 89 308q0 85 -53 133t-140.5 48t-144 -29t-96.5 -82q-82 -107 -82 -281z" />
<glyph unicode="&#xf1;" horiz-adv-x="1251" d="M35 0l166 851q16 79 38 231h268q0 -18 -10 -91.5t-14 -93.5h3q146 204 373 204q152 0 229 -73t77 -211q0 -66 -21 -164l-127 -653h-279l118 595q26 123 26 165q0 129 -152 129q-97 0 -182 -77q-90 -83 -113 -206l-118 -606h-282zM363 1183q30 124 70 179.5t89 84.5 t108 29t100.5 -19t78.5 -42.5t70 -42.5t60 -19t45.5 8.5t32.5 24.5q25 29 47 90h135q-30 -124 -70 -179.5t-88.5 -84.5t-107 -29t-99 19t-78 42.5t-71.5 42.5t-62 19t-46.5 -8.5t-32.5 -24.5q-23 -26 -45 -90h-136z" />
<glyph unicode="&#xf2;" horiz-adv-x="1251" d="M63 419q0 310 178 496t463 186q353 0 450 -241q31 -78 31 -209t-49 -261.5t-136 -221.5q-180 -188 -465 -188q-216 0 -343 116q-129 117 -129 323zM358 431q0 -259 208 -259q108 0 173 52q137 112 152 438q0 247 -208 247q-108 0 -175 -54q-88 -72 -130 -255 q-20 -87 -20 -169zM432 1459l8 43h258l195 -288l-6 -31h-148z" />
<glyph unicode="&#xf3;" horiz-adv-x="1251" d="M63 419q0 310 178 496t463 186q353 0 450 -241q31 -78 31 -209t-49 -261.5t-136 -221.5q-180 -188 -465 -188q-216 0 -343 116q-129 117 -129 323zM358 431q0 -259 208 -259q108 0 173 52q137 112 152 438q0 247 -208 247q-108 0 -175 -54q-88 -72 -130 -255 q-20 -87 -20 -169zM619 1183l6 31l247 288h277l-8 -43l-376 -276h-146z" />
<glyph unicode="&#xf4;" horiz-adv-x="1251" d="M63 419q0 310 178 496t463 186q353 0 450 -241q31 -78 31 -209t-49 -261.5t-136 -221.5q-180 -188 -465 -188q-216 0 -343 116q-129 117 -129 323zM358 431q0 -259 208 -259q108 0 173 52q137 112 152 438q0 247 -208 247q-108 0 -175 -54q-88 -72 -130 -255 q-20 -87 -20 -169zM360 1183l5 28l320 318h229l188 -318l-5 -28h-150l-166 192h-4l-248 -192h-169z" />
<glyph unicode="&#xf5;" horiz-adv-x="1251" d="M63 419q0 310 178 496t463 186q353 0 450 -241q31 -78 31 -209t-49 -261.5t-136 -221.5q-180 -188 -465 -188q-216 0 -343 116q-129 117 -129 323zM336 1183q30 124 70 179.5t89 84.5t108 29t100.5 -19t78.5 -42.5t70 -42.5t60 -19t45.5 8.5t32.5 24.5q25 29 47 90h135 q-30 -124 -70 -179.5t-88.5 -84.5t-107 -29t-99 19t-78 42.5t-71.5 42.5t-62 19t-46.5 -8.5t-32.5 -24.5q-23 -26 -45 -90h-136zM358 431q0 -259 208 -259q108 0 173 52q137 112 152 438q0 247 -208 247q-108 0 -175 -54q-88 -72 -130 -255q-20 -87 -20 -169z" />
<glyph unicode="&#xf6;" horiz-adv-x="1251" d="M63 419q0 310 178 496t463 186q353 0 450 -241q31 -78 31 -209t-49 -261.5t-136 -221.5q-180 -188 -465 -188q-216 0 -343 116q-129 117 -129 323zM358 431q0 -259 208 -259q108 0 173 52q137 112 152 438q0 247 -208 247q-108 0 -175 -54q-88 -72 -130 -255 q-20 -87 -20 -169zM425 1199l42 219h214l-43 -219h-213zM858 1199l43 219h217l-43 -219h-217z" />
<glyph unicode="&#xf7;" horiz-adv-x="1124" d="M69 569v224h1027v-224h-1027zM462 170v233h238v-233h-238zM462 961v233h238v-233h-238z" />
<glyph unicode="&#xf8;" horiz-adv-x="1251" d="M42 -38l131 152q-110 114 -110 287t46.5 299t131.5 215t203 137.5t268.5 48.5t264.5 -54l60 69h189l-134 -156q93 -105 93 -272.5t-49 -298t-136 -221.5q-180 -188 -465 -188q-138 0 -244 49l-58 -67h-191zM358 447q0 -66 8 -109l455 527q-50 44 -138 44q-108 0 -175 -54 q-88 -72 -130 -255q-20 -87 -20 -153zM443 206q78 -54 212 -24q154 35 213 298q32 151 19 242z" />
<glyph unicode="&#xf9;" horiz-adv-x="1251" d="M85 265q0 73 21 164l127 653h279l-118 -595q-26 -124 -26 -165q0 -129 152 -129q98 0 182 77q90 81 113 206l118 606h282l-166 -851q-16 -79 -38 -231h-268q0 18 10 91.5t14 93.5h-3q-146 -204 -373 -204q-152 0 -229 73t-77 211zM426 1459l8 43h258l195 -288l-6 -31 h-148z" />
<glyph unicode="&#xfa;" horiz-adv-x="1251" d="M85 265q0 73 21 164l127 653h279l-118 -595q-26 -124 -26 -165q0 -129 152 -129q98 0 182 77q90 81 113 206l118 606h282l-166 -851q-16 -79 -38 -231h-268q0 18 10 91.5t14 93.5h-3q-146 -204 -373 -204q-152 0 -229 73t-77 211zM604 1183l6 31l247 288h277l-8 -43 l-376 -276h-146z" />
<glyph unicode="&#xfb;" horiz-adv-x="1251" d="M85 265q0 73 21 164l127 653h279l-118 -595q-26 -124 -26 -165q0 -129 152 -129q98 0 182 77q90 81 113 206l118 606h282l-166 -851q-16 -79 -38 -231h-268q0 18 10 91.5t14 93.5h-3q-146 -204 -373 -204q-152 0 -229 73t-77 211zM369 1183l5 28l320 318h229l188 -318 l-5 -28h-150l-166 192h-4l-248 -192h-169z" />
<glyph unicode="&#xfc;" horiz-adv-x="1251" d="M85 265q0 73 21 164l127 653h279l-118 -595q-26 -124 -26 -165q0 -129 152 -129q98 0 182 77q90 81 113 206l118 606h282l-166 -851q-16 -79 -38 -231h-268q0 18 10 91.5t14 93.5h-3q-146 -204 -373 -204q-152 0 -229 73t-77 211zM420 1199l42 219h214l-43 -219h-213z M853 1199l43 219h217l-43 -219h-217z" />
<glyph unicode="&#xfd;" d="M-85 -407l38 196q40 -9 82.5 -9t75 10t63.5 33q61 46 122 153l28 48l-212 1058h291l71 -497q6 -31 11 -80.5t9 -86.5t7 -70.5t5.5 -59.5t2.5 -37q5 11 16.5 36.5t27 58t32.5 68.5t33 69q23 49 47 98l259 501h300l-654 -1139q-127 -197 -197.5 -257.5t-135.5 -85.5 t-133 -25q-113 0 -189 18zM527 1183l6 31l247 288h277l-8 -43l-376 -276h-146z" />
<glyph unicode="&#xfe;" horiz-adv-x="1251" d="M-46 -425l369 1909h281l-83 -427q-18 -92 -34 -144h6q105 147 245 178q50 11 120.5 11t133.5 -25t106 -71q87 -95 87 -258q0 -261 -93 -476q-127 -292 -430 -292q-246 0 -313 198h-2q-3 -19 -6.5 -42t-7.5 -48q-9 -58 -18 -98l-81 -415h-280zM400 389.5q0 -44.5 14.5 -87 t41.5 -71.5q52 -58 145 -58q107 0 167 71q86 102 116 368q5 44 5 82q0 106 -38.5 159.5t-106.5 53.5t-116 -16.5t-88 -56.5q-105 -105 -136 -362q-4 -38 -4 -82.5z" />
<glyph unicode="&#xff;" d="M-67 -407l38 196q40 -9 82.5 -9t75 10t63.5 33q61 46 122 153l28 48l-212 1058h291l71 -497q6 -31 11 -80.5t9 -86.5t7 -70.5t5.5 -59.5t2.5 -37q5 11 16.5 36.5t27 58t32.5 68.5t33 69q23 49 47 98l259 501h300l-654 -1139q-127 -197 -197.5 -257.5t-135.5 -85.5 t-133 -25q-113 0 -189 18zM374 1196l42 219h214l-43 -219h-213zM807 1196l43 219h217l-43 -219h-217z" />
<glyph unicode="&#x152;" horiz-adv-x="2048" d="M103 573q0 91 25 216t98.5 246.5t181.5 206.5q223 178 541 178q79 0 122 -4q75 -7 79 -7h949l-44 -227h-667l-69 -355h606l-43 -221h-606l-73 -375h708l-45 -231h-949q-63 -10 -212.5 -10t-262.5 42t-188 118q-151 153 -151 423zM403 539q0 -63 24 -127.5t67 -106.5 q86 -83 242 -83q102 0 173 20l180 927q-61 19 -150 19q-214 0 -345 -118q-157 -144 -186 -424q-5 -44 -5 -107z" />
<glyph unicode="&#x153;" horiz-adv-x="1933" d="M58 419q0 310 178 496t463 186q127 0 193 -26q107 -42 176 -115q152 142 383 142q217 0 330 -114q106 -107 106 -301q0 -95 -24 -211h-700q-7 -38 -7 -89q0 -219 184 -219q147 0 213 169l245 -74q-67 -143 -161 -206q-114 -77 -316 -77q-247 0 -366 152 q-137 -152 -425 -152q-216 0 -343 116q-129 117 -129 323zM353 431q0 -259 209 -259q109 0 172 52q88 72 129 256q8 35 10.5 54.5t5.5 41.5q5 34 7 86q0 247 -208 247q-108 0 -174 -54q-89 -72 -131 -255q-20 -87 -20 -169zM1196 663h431q3 24 3 56q0 107 -49.5 156 t-129.5 49q-135 0 -209 -132q-29 -50 -46 -129z" />
<glyph unicode="&#x178;" horiz-adv-x="1366" d="M143 1409h292l259 -605l474 605h323l-684 -831l-112 -578h-294l112 578zM494 1530l42 219h214l-43 -219h-213zM927 1530l43 219h217l-43 -219h-217z" />
<glyph unicode="&#x2c6;" horiz-adv-x="682" d="M76 1183l5 28l320 318h229l188 -318l-5 -28h-150l-166 192h-4l-248 -192h-169z" />
<glyph unicode="&#x2dc;" horiz-adv-x="682" d="M68 1183q30 124 70 179.5t89 84.5t108 29t100.5 -19t78.5 -42.5t70 -42.5t60 -19t45.5 8.5t32.5 24.5q25 29 47 90h135q-30 -124 -70 -179.5t-88.5 -84.5t-107 -29t-99 19t-78 42.5t-71.5 42.5t-62 19t-46.5 -8.5t-32.5 -24.5q-23 -26 -45 -90h-136z" />
<glyph unicode="&#x2000;" horiz-adv-x="917" />
<glyph unicode="&#x2001;" horiz-adv-x="1835" />
<glyph unicode="&#x2002;" horiz-adv-x="917" />
<glyph unicode="&#x2003;" horiz-adv-x="1835" />
<glyph unicode="&#x2004;" horiz-adv-x="611" />
<glyph unicode="&#x2005;" horiz-adv-x="458" />
<glyph unicode="&#x2006;" horiz-adv-x="305" />
<glyph unicode="&#x2007;" horiz-adv-x="305" />
<glyph unicode="&#x2008;" horiz-adv-x="229" />
<glyph unicode="&#x2009;" horiz-adv-x="367" />
<glyph unicode="&#x200a;" horiz-adv-x="101" />
<glyph unicode="&#x2010;" horiz-adv-x="682" d="M56 409l47 244h520l-47 -244h-520z" />
<glyph unicode="&#x2011;" horiz-adv-x="682" d="M56 409l47 244h520l-47 -244h-520z" />
<glyph unicode="&#x2012;" horiz-adv-x="682" d="M56 409l47 244h520l-47 -244h-520z" />
<glyph unicode="&#x2013;" d="M44 448l32 203h1014l-32 -203h-1014z" />
<glyph unicode="&#x2014;" horiz-adv-x="2048" d="M-19 448l38 203h2048l-39 -203h-2047z" />
<glyph unicode="&#x2018;" horiz-adv-x="569" d="M189 831l38 195q45 232 183 383h183q-162 -162 -193 -317h127l-51 -261h-287z" />
<glyph unicode="&#x2019;" horiz-adv-x="569" d="M189 831q163 168 193 318h-127l51 260h287l-38 -195q-45 -231 -184 -383h-182z" />
<glyph unicode="&#x201a;" horiz-adv-x="569" d="M-18 -317q115 115 170 236q18 41 25 81h-129l51 260h288l-38 -194q-45 -233 -182 -383h-185z" />
<glyph unicode="&#x201c;" horiz-adv-x="1024" d="M189 831l38 195q45 232 183 383h183q-162 -162 -193 -317h127l-51 -261h-287zM617 831l38 195q45 234 186 383h182q-162 -162 -193 -317h127l-51 -261h-289z" />
<glyph unicode="&#x201d;" horiz-adv-x="1024" d="M189 831q163 168 193 318h-127l51 260h287l-38 -192q-36 -190 -123 -311q-28 -39 -61 -75h-182zM617 831q164 164 195 318h-127l51 260h287l-38 -192q-25 -132 -61 -202q-55 -110 -123 -184h-184z" />
<glyph unicode="&#x201e;" horiz-adv-x="1024" d="M-10 -317q113 113 167 236q18 41 25 81h-127l51 260h287l-38 -194q-46 -238 -183 -383h-182zM418 -317q113 113 168 236q19 41 26 81h-127l51 260h287l-38 -194q-45 -232 -183 -383h-184z" />
<glyph unicode="&#x2022;" horiz-adv-x="717" d="M90 676q0 122 85.5 207.5t205.5 85.5q121 0 208 -85q87 -86 87 -208q0 -121 -87 -208t-208 -87q-120 0 -205 87q-86 87 -86 208z" />
<glyph unicode="&#x2026;" horiz-adv-x="2048" d="M133 0l59 305h289l-59 -305h-289zM787 0l59 305h289l-59 -305h-289zM1437 0l59 305h289l-59 -305h-289z" />
<glyph unicode="&#x202f;" horiz-adv-x="367" />
<glyph unicode="&#x2039;" horiz-adv-x="682" d="M73 500l14 71l323 367h239l-6 -41l-329 -366l188 -353l-5 -39h-232z" />
<glyph unicode="&#x203a;" horiz-adv-x="682" d="M33 139l6 41l329 366l-188 353l5 39h232l192 -361l-14 -71l-323 -367h-239z" />
<glyph unicode="&#x205f;" horiz-adv-x="458" />
<glyph unicode="&#x20ac;" d="M28 510l31 149h127q8 68 19 107h-126l32 149h134q117 409 412 490q91 25 191 25q273 0 341 -186q20 -54 24 -114l-257 -47q-19 106 -97 122q-25 5 -57.5 5t-70 -9t-73.5 -39q-81 -69 -124 -247h296l-29 -149h-301q-14 -53 -19 -107h310l-29 -149h-304q-3 -37 -3 -69 q0 -125 44 -183.5t120 -58.5q135 0 192 128l243 -40q-102 -305 -435 -305q-316 0 -413 272q-37 102 -37 256h-141z" />
<glyph unicode="&#x2122;" horiz-adv-x="2048" d="M185 1270v139h674v-139h-251v-502h-180v502h-243zM953 768v641h248l139 -301q22 -49 65 -160q12 31 23 59q19 53 41 101l144 301h243v-641h-165v340q0 41 3 87t5 85q-16 -39 -29 -72q-26 -67 -47 -112l-154 -328h-131l-149 328q-23 54 -42.5 99.5t-34.5 84.5 q7 -144 7 -172v-340h-166z" />
<glyph unicode="&#xe000;" horiz-adv-x="1080" d="M0 0v1080h1080v-1080h-1080z" />
</font>
</defs>
</svg>
