<?xml version="1.0" standalone="no"?>
<!DOCTYPE svg PUBLIC "-//W3C//DTD SVG 1.1//EN" "http://www.w3.org/Graphics/SVG/1.1/DTD/svg11.dtd" >
<svg xmlns="http://www.w3.org/2000/svg">
<metadata></metadata>
<defs>
<font id="LiberationSansRegular" horiz-adv-x="1139" >
<font-face units-per-em="2048" ascent="1638" descent="-410" />
<missing-glyph horiz-adv-x="569" />
<glyph horiz-adv-x="0" />
<glyph horiz-adv-x="2048" />
<glyph unicode="&#xd;" horiz-adv-x="569" />
<glyph unicode=" "  horiz-adv-x="569" />
<glyph unicode="&#x09;" horiz-adv-x="569" />
<glyph unicode="&#xa0;" horiz-adv-x="569" />
<glyph unicode="!" horiz-adv-x="569" d="M185 0v201h194v-201h-194zM187 1409h196l-24 -1012h-148z" />
<glyph unicode="&#x22;" horiz-adv-x="727" d="M87 1409h184l-22 -443h-141zM456 1409h184l-22 -443h-142z" />
<glyph unicode="#" d="M9 408v108h225l78 369h-252v108h274l89 408h110l-88 -408h363l88 408h110l-88 -408h211v-108h-233l-78 -369h260v-108h-283l-88 -408h-110l86 408h-363l-84 -408h-110l84 408h-201zM345 516h362l78 369h-360z" />
<glyph unicode="$" d="M22 379l170 37q48 -230 326 -248v496l-20 5q-193 45 -267 98t-109.5 117t-35.5 155t32 153t90 104q112 81 310 89v131h124v-131q280 -14 380 -187q33 -58 53 -133l-174 -33q-20 94 -81 146.5t-178 63.5v-445q155 -37 215.5 -61t104.5 -52t76 -68q68 -83 68 -220 q0 -159 -113 -258q-121 -106 -351 -118v-162h-124v162q-426 18 -496 359zM258 1048q0 -140 158 -194q47 -17 102 -31v421q-260 -14 -260 -196zM642 167q292 18 292 231q0 59 -23.5 99t-64.5 65q-52 34 -204 73v-468z" />
<glyph unicode="%" horiz-adv-x="1821" d="M73 977q0 129 24.5 215t67.5 137t102 71.5t125 20.5t123 -20.5t100 -71.5q92 -109 92 -354q0 -235 -93 -351q-79 -100 -224 -100q-225 0 -292 238q-25 86 -25 215zM220 975q0 -269 98 -321q32 -17 72 -17t71 17t53 56.5t34 104.5t12 161.5t-11 161.5t-32 104 q-38 71 -123 71q-89 0 -130 -72q-44 -78 -44 -266zM372 0l922 1409h157l-924 -1409h-155zM1113 437.5q0 129.5 24 216.5t67 138q77 93 228 93q147 0 224 -93q92 -112 92 -354q0 -129 -25.5 -214.5t-68.5 -137.5q-81 -98 -226 -98q-223 0 -290 234q-25 86 -25 215.5z M1260 434q0 -266 98 -319q31 -17 71 -17t71.5 17t53.5 56.5t34 103.5t12 161t-11 162.5t-33 104.5q-39 71 -124 71q-87 0 -128 -72q-44 -78 -44 -268z" />
<glyph unicode="&#x26;" horiz-adv-x="1366" d="M72 371q0 278 343 429q-81 153 -81 302q0 220 192 290q66 25 149 25t144.5 -19t106.5 -55q95 -76 95 -210q0 -194 -252 -321q-74 -38 -157 -71q111 -205 293 -412q113 166 171 410l145 -43q-63 -249 -212 -469q96 -98 208 -98q71 0 117 16v-135q-56 -22 -141 -22 q-177 0 -298 127q-156 -135 -372 -135q-225 0 -343 112q-108 104 -108 279zM240 373q0 -181 162 -241q54 -21 112.5 -21t98 9.5t73.5 24.5q62 27 109 72q-198 234 -319 457q-236 -100 -236 -301zM487 1118q0 -130 65 -260q157 63 212 104.5t80 81t25 83t-13.5 73.5t-37.5 52 q-50 44 -140.5 44t-140.5 -51.5t-50 -126.5z" />
<glyph unicode="'" horiz-adv-x="391" d="M104 1409h184l-22 -443h-141z" />
<glyph unicode="(" horiz-adv-x="682" d="M127 528v4q0 420 202 737q70 110 167 215h174q-362 -404 -362 -954q0 -419 200 -739q68 -110 162 -215h-174q-286 309 -348 686q-21 126 -21 266z" />
<glyph unicode=")" horiz-adv-x="682" d="M12 -424q362 404 362 954t-362 954h174q286 -309 348 -686q21 -127 21 -266v-4q0 -420 -202 -737q-70 -110 -167 -215h-174z" />
<glyph unicode="*" horiz-adv-x="797" d="M33 1085l45 134l267 -107l-12 297h136l-13 -295l264 103l45 -132l-282 -73l185 -250l-119 -72l-150 258l-156 -256l-119 72l189 248z" />
<glyph unicode="+" horiz-adv-x="1196" d="M100 608v146h424v428h147v-428h424v-146h-424v-428h-147v428h-424z" />
<glyph unicode="," horiz-adv-x="569" d="M184 -262q94 136 94 262h-88v219h195v-168q0 -188 -78 -313h-123z" />
<glyph unicode="-" horiz-adv-x="682" d="M91 464v160h500v-160h-500z" />
<glyph unicode="." horiz-adv-x="569" d="M187 0v219h195v-219h-195z" />
<glyph unicode="/" horiz-adv-x="569" d="M0 -20l411 1504h158l-407 -1504h-162z" />
<glyph unicode="0" d="M80 709.5q0 208.5 37.5 348t103.5 222.5q119 150 352 150q225 0 344 -150q142 -179 142 -570q0 -208 -38.5 -346.5t-104.5 -223.5q-125 -160 -349 -160q-346 0 -449 382q-38 139 -38 347.5zM262 705q0 -457 177 -549q57 -29 129 -29t129 29.5t96.5 97t61 178.5t21.5 276 t-20 276.5t-59 177.5q-71 122 -224 122q-159 0 -231 -122q-80 -134 -80 -457z" />
<glyph unicode="1" d="M156 0v153h359v1084l-318 -227v170l333 229h166v-1256h343v-153h-883z" />
<glyph unicode="2" d="M103 0v127q85 195 279 369q81 72 160.5 134t143.5 124t103.5 130t39.5 141t-18 118.5t-52 76.5q-68 62 -187 62q-175 0 -246 -134q-24 -45 -31 -104l-184 17q19 161 133 261q125 108 328 108q320 0 412 -220q30 -72 30 -154.5t-25.5 -146.5t-68 -122t-98.5 -112 t-117 -105.5t-123 -102t-116 -101.5q-124 -116 -165 -213h735v-153h-933z" />
<glyph unicode="3" d="M78 362l186 17q36 -250 307 -250q136 0 213.5 67t77.5 199q0 137 -120 199q-87 45 -224 45h-102v156h98q204 0 282 123q29 47 29 120q0 113 -66.5 178.5t-191.5 65.5t-198.5 -61t-85.5 -172l-181 14q21 179 152 277q123 90 309 90q225 0 342 -110q105 -98 105 -263 q0 -197 -162 -287q-55 -31 -133 -47v-4q164 -17 252 -112q82 -88 82 -201.5t-31.5 -189.5t-91.5 -128q-124 -108 -355 -108q-240 0 -368 118q-104 97 -125 264z" />
<glyph unicode="4" d="M47 319v140l645 950h189v-948h198v-142h-198v-319h-170v319h-664zM213 461h498v745q-4 -10 -31.5 -58.5t-35.5 -60.5l-361 -532q-28 -46 -70 -94z" />
<glyph unicode="5" d="M82 315l182 21q57 -209 293 -209q143 0 225 85q84 88 84 243q0 131 -81 213q-82 84 -226 84t-260 -101h-176l47 758h801v-153h-637l-27 -447q117 90 291 90q208 0 332 -123q123 -121 123 -317q0 -217 -127 -345q-132 -134 -373 -134q-311 0 -423 204q-34 61 -48 131z" />
<glyph unicode="6" d="M104 672q0 371 134 567q131 191 370 191q319 0 402 -287l-172 -31q-53 172 -232 172q-152 0 -236 -140q-87 -143 -87 -419q49 91 138 138.5t194.5 47.5t183.5 -31t133 -90q117 -122 117 -329q0 -218 -117 -347q-121 -134 -338 -134q-242 0 -368 182q-122 178 -122 510z M301 495q0 -77 20 -144.5t57 -117.5q82 -108 210 -108q130 0 204 87.5t74 239.5q0 74 -18 133t-54 101q-75 86 -212 86q-185 0 -256 -147q-25 -53 -25 -130z" />
<glyph unicode="7" d="M105 1256v153h931v-146q-106 -162 -195 -311.5t-153 -301.5q-135 -319 -135 -650h-188q0 445 306 958q90 151 191 298h-757z" />
<glyph unicode="8" d="M89 391q0 145 87 241q78 86 194 105v4q-117 28 -184 119q-64 90 -64 209q0 155 113 255q120 106 331 106q219 0 340 -108q109 -97 109 -255q0 -118 -65 -207q-67 -94 -185 -117v-4q198 -32 263 -210q22 -60 22 -143t-28.5 -158.5t-87.5 -130.5q-124 -117 -364 -117 q-237 0 -364 116q-117 107 -117 295zM275 406q0 -291 297 -291q230 0 276 173q15 55 15 114t-14 106.5t-48 83.5q-76 82 -235 82q-148 0 -224 -82q-67 -71 -67 -186zM306 1057q0 -166 131 -225q51 -23 133.5 -23t134 23t79.5 59q44 58 44 166q0 239 -261 239t-261 -239z" />
<glyph unicode="9" d="M96 956q0 220 123 346q124 128 352.5 128t349.5 -174t121 -523q0 -370 -137 -565q-132 -188 -373 -188q-247 0 -349 159q-36 56 -58 135l172 27q54 -176 238 -176q231 0 303 311q24 104 26 244q-63 -141 -241 -186q-54 -13 -129.5 -13t-153 34.5t-131.5 96.5 q-113 130 -113 344zM279 956q0 -231 157 -308q52 -25 111.5 -25t111 17t93 52t68 88.5t26.5 129t-18.5 144.5t-55.5 120q-78 110 -213 110q-130 0 -205 -88.5t-75 -239.5z" />
<glyph unicode=":" horiz-adv-x="569" d="M187 0v207h195v-207h-195zM187 875v207h195v-207h-195z" />
<glyph unicode=";" horiz-adv-x="569" d="M184 -262q94 136 94 262h-88v207h195v-156q0 -188 -78 -313h-123zM190 875v207h195v-207h-195z" />
<glyph unicode="&#x3c;" horiz-adv-x="1196" d="M101 571v205l995 418v-154l-858 -366l858 -367v-153z" />
<glyph unicode="=" horiz-adv-x="1196" d="M100 344v148h995v-148h-995zM100 856v148h995v-148h-995z" />
<glyph unicode="&#x3e;" horiz-adv-x="1196" d="M101 154v153l858 367l-858 366v154l995 -418v-205z" />
<glyph unicode="?" d="M84 1020q37 286 288 378q90 32 208 32t207 -28t150.5 -79.5t93.5 -125.5t32 -155t-18.5 -135t-49.5 -96.5t-70.5 -76t-80.5 -63.5t-80.5 -59t-71.5 -63q-69 -75 -71 -172h-175q5 174 142 285q39 31 79 59.5t78.5 57t68.5 63.5q67 78 67 182q0 117 -81 182 q-77 64 -215.5 64t-220.5 -70t-96 -192zM438 0v201h195v-201h-195z" />
<glyph unicode="@" horiz-adv-x="2079" d="M161 491q0 278 122 505q186 347 571 453q128 35 300.5 35t318.5 -59t241 -159q188 -196 188 -511q0 -285 -126 -469q-125 -182 -321 -182q-207 0 -207 176q0 34 3 70h-6q-89 -167 -245 -224q-58 -22 -135.5 -22t-140 29t-102.5 81q-81 102 -81 275q0 250 137 425 q146 187 365 187t301 -182h6l39 160h156l-116 -506q-37 -164 -37 -255.5t81 -91.5q124 0 208.5 152t84.5 375q0 267 -164 432q-171 173 -474 173q-259 0 -453 -122q-179 -113 -278 -315q-95 -194 -95 -430q0 -290 168 -465q176 -181 483 -181t604 162l55 -112 q-297 -178 -658 -178q-372 0 -586 218q-207 210 -207 556zM706 491q0 -256 194 -256q131 0 237 113q116 123 152 330q7 40 7 79.5t-17 81.5t-49 72q-66 63 -164 63t-163 -42.5t-109 -111.5q-88 -140 -88 -329z" />
<glyph unicode="A" horiz-adv-x="1366" d="M4 0l575 1409h217l566 -1409h-195l-161 412h-642l-162 -412h-198zM422 561h527l-181 465q-28 69 -47.5 129t-27 82.5t-8.5 27.5q-2 -5 -9 -28t-18 -57q-28 -82 -56 -156z" />
<glyph unicode="B" horiz-adv-x="1366" d="M168 0v1409h512q496 0 496 -342q0 -188 -150 -279q-51 -30 -118 -45q254 -30 327 -217q23 -60 23 -148t-42 -163.5t-113 -122.5q-137 -92 -363 -92h-572zM359 153h371q243 0 310 134q25 50 25 125q0 249 -350 249h-356v-508zM359 810h321q237 0 288 137q16 43 16 97 q0 114 -78 163t-226 49h-321v-446z" />
<glyph unicode="C" horiz-adv-x="1479" d="M104 711q0 334 178 525q183 194 508 194q455 0 598 -349l-181 -60q-70 174 -259 232q-68 21 -172 21t-196.5 -40t-155.5 -114q-126 -150 -126 -409q0 -257 134 -414q135 -160 368 -160q296 0 445 293l156 -78q-126 -263 -397 -344q-95 -28 -239.5 -28t-273 54.5 t-215.5 151.5q-172 195 -172 525z" />
<glyph unicode="D" horiz-adv-x="1479" d="M168 0v1409h466q529 0 692 -380q55 -130 55 -308t-53 -312.5t-145 -224.5q-187 -184 -488 -184h-527zM359 153h314q230 0 369 143q147 151 147 424q0 142 -41 243.5t-115 166.5q-143 126 -403 126h-271v-1103z" />
<glyph unicode="E" horiz-adv-x="1366" d="M168 0v1409h1069v-156h-878v-452h818v-154h-818v-491h919v-156h-1110z" />
<glyph unicode="F" horiz-adv-x="1251" d="M168 0v1409h1001v-156h-810v-524h786v-158h-786v-571h-191z" />
<glyph unicode="G" horiz-adv-x="1593" d="M103 714q0 162 44.5 295t132.5 227q185 194 524 194q363 0 520 -194q50 -61 85 -138l-182 -54q-115 230 -428 230q-250 0 -379 -154q-123 -147 -123 -409q0 -260 131 -415q137 -161 385 -161q222 0 379 101q43 27 72 55v254h-421v160h597v-486q-163 -167 -426 -220 q-94 -19 -236.5 -19t-275.5 54.5t-221.5 152t-133 231.5t-44.5 296z" />
<glyph unicode="H" horiz-adv-x="1479" d="M168 0v1409h191v-596h762v596h191v-1409h-191v653h-762v-653h-191z" />
<glyph unicode="I" horiz-adv-x="569" d="M189 0v1409h191v-1409h-191z" />
<glyph unicode="J" horiz-adv-x="1024" d="M32 350l187 31q28 -185 159 -232q39 -14 80 -14q104 0 164 71.5t60 209.5v837h-271v156h461v-989q0 -203 -110 -320q-111 -120 -305 -120q-358 0 -425 370z" />
<glyph unicode="K" horiz-adv-x="1366" d="M168 0v1409h191v-706l679 706h225l-600 -612l680 -797h-237l-563 680l-184 -140v-540h-191z" />
<glyph unicode="L" d="M168 0v1409h191v-1253h712v-156h-903z" />
<glyph unicode="M" horiz-adv-x="1706" d="M168 0v1409h251l375 -977q45 -129 63 -224q8 43 34 123.5t34 100.5l368 977h245v-1409h-172v940q0 156 9 300q-49 -179 -88 -280l-364 -960h-134l-369 960q-6 15 -12.5 35t-13.5 43q-36 107 -63 202l7 -300v-940h-170z" />
<glyph unicode="N" horiz-adv-x="1479" d="M168 0v1409h222l762 -1208l-6 98q-6 126 -6 186v924h172v-1409h-230l-754 1200q10 -245 10 -264v-936h-170z" />
<glyph unicode="O" horiz-adv-x="1593" d="M97 711q0 334 181 525q185 194 519 194q333 0 517 -196q181 -192 181 -524q0 -164 -47.5 -299t-137.5 -231q-188 -200 -515 -200q-339 0 -523 206q-175 197 -175 525zM291 711q0 -260 129 -415q134 -161 375 -161q254 0 385 163q120 149 120 414q0 126 -32.5 230 t-95.5 178q-133 154 -375 154q-247 0 -379 -154q-127 -147 -127 -409z" />
<glyph unicode="P" horiz-adv-x="1366" d="M168 0v1409h593q243 0 373 -117q124 -110 124 -306q0 -93 -30.5 -172.5t-91.5 -137.5q-130 -127 -363 -127h-414v-549h-191zM359 700h387q320 0 320 283q0 273 -328 273h-379v-556z" />
<glyph unicode="Q" horiz-adv-x="1593" d="M97 711q0 334 181 525q185 194 519 194q333 0 517 -196q181 -192 181 -523q0 -297 -149 -489q-150 -192 -418 -228q61 -185 184 -224q41 -14 94 -14t113 13v-134q-93 -22 -178.5 -22t-149.5 25.5t-113 73.5q-87 85 -145 272q-309 16 -477 220q-159 193 -159 507zM291 711 q0 -260 129 -415q134 -161 375 -161q254 0 385 163q120 149 120 414q0 126 -32.5 230t-95.5 178q-133 154 -375 154q-247 0 -379 -154q-127 -147 -127 -409z" />
<glyph unicode="R" horiz-adv-x="1479" d="M168 0v1409h663q361 0 464 -234q33 -75 33 -155.5t-19.5 -145.5t-61.5 -119q-92 -118 -263 -148l400 -607h-220l-366 585h-439v-585h-191zM359 736h461q236 0 298 162q18 49 18 109.5t-22 107.5t-64 79q-83 62 -238 62h-453v-520z" />
<glyph unicode="S" horiz-adv-x="1366" d="M93 338l185 37q63 -246 419 -246q276 0 357 137q29 47 29 114.5t-31.5 110.5t-88.5 71t-136 47t-156.5 36.5t-137 33t-114 37t-102.5 50.5t-83 70q-75 86 -75 201.5t40.5 187t112.5 117.5q138 88 382 88q367 0 484 -184q38 -60 61 -140l-188 -33q-44 160 -215 199 q-61 14 -144 14q-347 0 -347 -223q0 -113 117 -171q69 -34 205 -65t200.5 -46.5t123.5 -37t110.5 -50.5t89.5 -71q81 -90 81 -233q0 -289 -322 -379q-110 -30 -260 -30q-515 0 -597 358z" />
<glyph unicode="T" horiz-adv-x="1251" d="M46 1253v156h1158v-156h-484v-1253h-190v1253h-484z" />
<glyph unicode="U" horiz-adv-x="1479" d="M158 512v897h191v-881q0 -301 229 -372q69 -21 151.5 -21t155.5 22t128 70q118 103 118 314v868h190v-879q0 -269 -173 -416q-158 -134 -414 -134q-119 0 -223 31t-183 97q-170 142 -170 404z" />
<glyph unicode="V" horiz-adv-x="1366" d="M9 1409h201l390 -992q33 -99 52 -154.5t32 -94.5q12 37 25 75t27.5 82t31.5 92l388 992h201l-575 -1409h-198z" />
<glyph unicode="W" horiz-adv-x="1933" d="M9 1409h199l253 -895q45 -168 83 -346q15 69 26.5 116.5t18.5 78.5t14.5 61t15 57.5t13.5 50.5l245 877h183l245 -877q6 -23 13.5 -50.5t15 -57t14.5 -60.5t18.5 -78.5t26.5 -117.5q1 0 21 86q44 189 64 260l249 895h199l-415 -1409h-228l-244 895q-24 84 -70 301 q-13 -58 -25 -110q-30 -135 -46 -191l-246 -895h-228z" />
<glyph unicode="X" horiz-adv-x="1366" d="M46 0l536 732l-495 677h211l392 -553l381 553h211l-482 -670l523 -739h-211l-423 616l-432 -616h-211z" />
<glyph unicode="Y" horiz-adv-x="1366" d="M45 1409h210l429 -671l427 671h210l-544 -825v-584h-190v584z" />
<glyph unicode="Z" horiz-adv-x="1251" d="M65 0v143l858 1110h-785v156h1002v-139l-858 -1114h905v-156h-1122z" />
<glyph unicode="[" horiz-adv-x="569" d="M146 -425v1909h407v-129h-233v-1651h233v-129h-407z" />
<glyph unicode="\" horiz-adv-x="569" d="M0 1484h158l411 -1504h-162z" />
<glyph unicode="]" horiz-adv-x="569" d="M16 -296h233v1651h-233v129h407v-1909h-407v129z" />
<glyph unicode="^" horiz-adv-x="961" d="M10 673l368 736h203l370 -736h-164l-309 633l-306 -633h-162z" />
<glyph unicode="_" d="M-31 -277h1193v-130h-1193v130z" />
<glyph unicode="`" horiz-adv-x="682" d="M106 1479v29h207l217 -287v-20h-94z" />
<glyph unicode="a" d="M87 302q0 196 147 283q111 66 320 71l243 4v59q0 192 -129 233q-44 13 -99.5 13t-97.5 -7.5t-73 -27.5q-64 -39 -75 -137l-188 17q46 292 434 292q204 0 307 -93.5t103 -270.5v-466q0 -80 21 -120.5t80 -40.5q26 0 59 7v-112q-68 -16 -129 -16t-97.5 13.5t-59.5 40.5 q-44 53 -50 163h-6q-64 -114 -144 -165q-96 -62 -249 -62t-235 86t-82 236zM272 291.5q0 -80.5 47.5 -128.5t134.5 -48t151.5 31.5t106.5 80.5q85 97 85 218v89l-197 -4q-157 -2 -216 -35t-85.5 -78t-26.5 -125.5z" />
<glyph unicode="b" d="M132 0q6 54 6 223v1261h180v-423q0 -65 -4 -153h4q50 104 132.5 149t204.5 45q205 0 301.5 -138t96.5 -418q0 -566 -398 -566q-123 0 -204.5 44.5t-132.5 143.5h-2q0 -128 -10 -168h-174zM318 529q0 -329 165 -395q54 -21 122 -21t116 23t80 74t47.5 132.5t15.5 195.5 t-14 194t-45 132q-60 99 -196 99q-147 0 -217 -97q-74 -104 -74 -337z" />
<glyph unicode="c" horiz-adv-x="1024" d="M87 542q0 392 241 512q97 48 205.5 48t179.5 -25t123 -69q100 -85 128 -229l-185 -14q-14 90 -71 143t-148 53t-142.5 -25.5t-83.5 -77t-45.5 -129.5t-13.5 -177t13.5 -177t45.5 -135q67 -118 214 -118q96 0 160.5 52t79.5 160l182 -12q-20 -146 -120 -238 q-114 -104 -297 -104q-242 0 -361 162q-105 143 -105 400z" />
<glyph unicode="d" d="M86 536q0 566 398 566q123 0 205 -45t132 -143h2l-2 121v449h180v-1261q0 -169 6 -223h-172q-10 50 -10 174h-4q-50 -104 -132.5 -149t-204.5 -45q-205 0 -301.5 138t-96.5 418zM275 544q0 -114 14 -194t45 -132q60 -99 196 -99q147 0 216 97q75 106 75 338 q0 327 -165 394q-54 21 -122 21t-116 -23t-80 -74t-47.5 -132.5t-15.5 -195.5z" />
<glyph unicode="e" d="M87 548q0 287 142 429q125 125 342 125q256 0 375 -166q102 -143 102 -409v-24h-772q0 -277 165 -359q57 -29 155.5 -29t169 47t95.5 119l158 -45q-97 -256 -441 -256q-240 0 -365.5 143t-125.5 425zM278 641h584q-15 171 -87 249.5t-207 78.5q-181 0 -257 -167 q-29 -63 -33 -161z" />
<glyph unicode="f" horiz-adv-x="569" d="M29 951v131h152v122q0 132 51 198q64 80 213 80q75 0 127 -12v-137q-45 8 -82.5 8t-63 -11t-40.5 -32q-25 -36 -25 -119v-97h211v-131h-211v-951h-180v951h-152z" />
<glyph unicode="g" d="M86 536.5q0 132.5 21.5 236.5t70.5 177q100 149 314 149q115 0 199.5 -52.5t130.5 -149.5h2q0 82 5 132t7 53h171q-6 -54 -6 -224v-827q0 -456 -453 -456q-268 0 -371 158q-32 49 -46 109l181 26q37 -156 241 -156q269 0 269 315v174h-2q-102 -209 -348 -209 q-300 0 -364 310q-22 102 -22 234.5zM272 541q0 -333 144 -395q49 -21 110 -21t112.5 23t92.5 73t66 129t25 191.5t-24.5 193t-64.5 131.5q-78 99 -197 99q-138 0 -200 -99q-64 -101 -64 -325z" />
<glyph unicode="h" d="M142 0v1484h180v-386q0 -145 -8 -201h3q87 160 234 193q50 12 133 12t149.5 -28t104.5 -78q68 -89 68 -275v-721h-181v686q0 149 -41 208q-48 69 -182 69q-127 0 -203.5 -88t-76.5 -237v-638h-180z" />
<glyph unicode="i" horiz-adv-x="455" d="M137 0v1082h180v-1082h-180zM137 1312v172h180v-172h-180z" />
<glyph unicode="j" horiz-adv-x="455" d="M-50 -277q39 -6 69.5 -6t55 10t38.5 31q24 37 24 135v1189h180v-1216q0 -210 -121 -268q-47 -23 -121.5 -23t-124.5 9v139zM137 1312v172h180v-172h-180z" />
<glyph unicode="k" horiz-adv-x="1024" d="M138 0v1484h180v-927l475 525h211l-439 -465l462 -617h-211l-366 494l-132 -109v-385h-180z" />
<glyph unicode="l" horiz-adv-x="455" d="M138 0v1484h180v-1484h-180z" />
<glyph unicode="m" horiz-adv-x="1706" d="M136 1082h170q1 -5 2 -27t2 -51q4 -66 4 -107h3q53 104 117 149q79 56 200.5 56t193 -49t99.5 -156h3q105 205 328 205q165 0 239 -90t74 -291v-721h-178v686q0 157 -43 218q-44 59 -155 59q-179 0 -231 -190q-18 -63 -18 -146v-627h-178v686q0 157 -44 218 q-43 59 -154 59q-115 0 -182 -87q-67 -89 -67 -249v-627h-179v851q0 189 -6 231z" />
<glyph unicode="n" d="M136 1082h170q1 -5 2 -27t2 -51q4 -66 4 -107h3q57 103 129 149q86 56 196.5 56t175.5 -22t107 -68q81 -89 81 -291v-721h-181v686q0 156 -49 218q-48 59 -174 59q-128 0 -204 -87q-76 -90 -76 -249v-627h-180v851q0 189 -6 231z" />
<glyph unicode="o" d="M86 542q0 560 485 560q370 0 454 -315q28 -105 28 -245q0 -284 -125 -423t-363 -139q-350 0 -447 314q-32 105 -32 248zM275 542q0 -343 173 -409q53 -20 118.5 -20t121.5 19.5t95 68.5q81 102 81 341q0 347 -168 408q-54 19 -122.5 19t-124 -20.5t-94.5 -70.5 q-80 -101 -80 -336z" />
<glyph unicode="p" d="M132 1082h174q3 -8 6.5 -78t3.5 -96h4q73 152 222 182q50 11 137.5 11t164 -40t122.5 -113q87 -134 87 -402q0 -566 -398 -566q-250 0 -336 188h-5q4 -8 4 -170v-423h-180v1286q0 167 -6 221zM318 528q0 -328 165 -394q54 -21 126.5 -21t122 29t79 84t41.5 134.5 t12 180.5t-12 179t-42 132q-60 110 -201 110q-138 0 -205 -82q-86 -104 -86 -352z" />
<glyph unicode="q" d="M86 536q0 566 398 566q189 0 282 -106q30 -35 55 -82h2q0 82 5 130.5t7 51.5h173q-7 -60 -7 -295v-1226h-180v439q0 48 4 164h-2q-79 -154 -223 -186q-51 -12 -116 -12q-206 0 -302 139t-96 417zM275 542q0 -222 57 -320q61 -103 198 -103q136 0 206 85q85 105 85 343 q0 125 -20.5 205t-58.5 128q-69 89 -210 89q-137 0 -198 -103q-59 -103 -59 -324z" />
<glyph unicode="r" horiz-adv-x="682" d="M136 1082h170q8 -184 8 -221h4q40 131 91 183q58 58 166 58q36 0 73 -10v-165q-36 10 -97 10t-104.5 -28t-70.5 -77q-54 -97 -54 -268v-564h-180v830q0 114 -6 252z" />
<glyph unicode="s" horiz-adv-x="1024" d="M57 254l159 31q23 -87 95 -127.5t200 -40.5q264 0 264 168q0 88 -87 133q-41 21 -99.5 36.5t-126 33.5t-131.5 39t-115 55q-116 78 -116 220t105.5 219.5t296 77.5t296 -63t133.5 -202l-162 -20q-32 149 -263 149t-231 -149q0 -79 81 -120q48 -25 151.5 -50.5t148.5 -38 t87.5 -30t80 -41t65.5 -56.5q61 -72 61 -163.5t-29.5 -151t-85.5 -99.5q-115 -84 -324 -84q-291 0 -397 146q-39 52 -57 128z" />
<glyph unicode="t" horiz-adv-x="569" d="M31 951v131h132l53 242h120v-242h200v-131h-200v-683q0 -78 25.5 -109.5t75 -31.5t117.5 14v-133q-89 -24 -182 -24q-216 0 -216 245v722h-125z" />
<glyph unicode="u" d="M133 361v721h181v-686q0 -156 49 -218q48 -59 174 -59q128 0 203 87q77 90 77 249v627h180v-851q0 -189 6 -231h-170q-1 5 -2 27t-3 51q-3 66 -3 107h-3q-57 -103 -129 -149q-86 -56 -196.5 -56t-175.5 22t-107 68q-81 89 -81 291z" />
<glyph unicode="v" horiz-adv-x="1024" d="M7 1082h192l238 -704q31 -98 47 -157t22 -80q42 147 74 235l246 706h191l-404 -1082h-213z" />
<glyph unicode="w" horiz-adv-x="1479" d="M-3 1082h178l183 -735q7 -23 14 -56.5t14 -68t15 -73.5q8 38 16.5 71.5t16.5 65.5t14 53l196 743h193l189 -743q17 -63 46 -190q8 38 15.5 71.5l15 67t14.5 59.5l191 735h176l-310 -1082h-209l-173 698q-19 65 -52 236q-27 -137 -54 -240l-178 -694h-208z" />
<glyph unicode="x" horiz-adv-x="1024" d="M23 0l385 556l-367 526h199l270 -421l268 421h201l-367 -524l390 -558h-201l-291 444l-293 -444h-194z" />
<glyph unicode="y" horiz-adv-x="1024" d="M5 1082h192l228 -598q10 -27 25.5 -72t31.5 -90q38 -110 41 -126q6 22 45.5 130t49.5 138l212 618h190l-416 -1082q-85 -218 -166 -310q-101 -115 -247 -115q-74 0 -124 11v135q38 -6 84 -6q168 0 266 247l17 43z" />
<glyph unicode="z" horiz-adv-x="1024" d="M49 0v137l661 806h-621v139h824v-137l-662 -806h699v-139h-901z" />
<glyph unicode="{" horiz-adv-x="684" d="M34 466v127q215 8 215 236v362q0 141 66.5 217t197.5 76h135v-129h-63q-91 0 -129.5 -53.5t-38.5 -161.5v-356q0 -147 -117 -220q-36 -22 -77 -32v-2q135 -31 179 -161q15 -42 15 -93v-357q0 -106 38.5 -160.5t129.5 -54.5h63v-129h-135q-193 0 -247 171q-17 54 -17 122 v361q0 178 -124 221q-40 14 -91 16z" />
<glyph unicode="|" horiz-adv-x="532" d="M183 -434v1918h166v-1918h-166z" />
<glyph unicode="}" horiz-adv-x="684" d="M34 -296h60q91 0 130.5 54.5t39.5 160.5v357q0 151 114 222q36 22 79 32v2q-84 20 -138 86q-55 68 -55 166v356q0 108 -39.5 161.5t-130.5 53.5h-60v129h132q131 0 197.5 -76t66.5 -217v-362q0 -177 124 -220q41 -14 93 -16v-127q-217 -8 -217 -237v-361 q0 -211 -150 -272q-49 -21 -114 -21h-132v129z" />
<glyph unicode="~" horiz-adv-x="1196" d="M92 580v143q111 84 263 84q102 0 235 -46q37 -13 66 -23.5t54 -18t50 -14.5q55 -15 100 -15q130 0 244 92v-149q-111 -80 -260 -80q-69 0 -141.5 22t-173.5 57.5t-189 35.5q-126 0 -248 -88z" />
<glyph unicode="&#xa1;" horiz-adv-x="682" d="M242 -327l24 1012h148l24 -1012h-196zM246 881v201h194v-201h-194z" />
<glyph unicode="&#xa2;" d="M135 697q0 278 121 421q102 120 282 136v155h124v-155q222 -23 311 -202q27 -55 39 -118l-185 -14q-14 90 -61 133.5t-104 55.5v-825q150 33 174 205l182 -12q-27 -211 -210 -301q-63 -31 -146 -39v-168h-124v168q-211 19 -312 177q-91 142 -91 383zM323 707 q0 -99 13 -177q38 -219 202 -248v830q-166 -24 -202 -228q-13 -78 -13 -177z" />
<glyph unicode="&#xa3;" d="M58 625v129h186v280q0 288 223 368q76 28 162.5 28t148 -14.5t110.5 -43.5q104 -61 139 -172l-174 -57q-31 97 -135 129q-32 10 -68 10q-114 0 -170 -57.5t-56 -182.5v-288h408v-129h-408v-126q0 -180 -98 -289q-31 -36 -71 -57h483q174 0 203 176l163 -18 q-26 -233 -212 -293q-58 -18 -125 -18h-698v154q175 90 175 327v144h-186z" />
<glyph unicode="&#xa4;" d="M113 330l102 102q-78 114 -78 252t78 252l-100 100l104 103l99 -101q114 82 252.5 82t252.5 -80l97 97l104 -105l-96 -96q80 -117 80 -252q0 -138 -82 -252l100 -100l-102 -105l-101 101q-114 -78 -254 -78t-249 80l-105 -105zM291 686q0 -117 83 -198q83 -82 198 -82 q114 0 198 82q82 81 82 198t-82 198q-85 83 -198 83q-114 0 -198 -83q-83 -81 -83 -198z" />
<glyph unicode="&#xa5;" d="M-2 1409h199l371 -647l375 647h199l-422 -700h321v-125h-383v-154h383v-127h-383v-303h-178v303h-381v127h381l2 154h-383v125h320z" />
<glyph unicode="&#xa6;" horiz-adv-x="532" d="M183 345h166v-779h-166v779zM183 706v778h166v-778h-166z" />
<glyph unicode="&#xa7;" d="M115 100l161 31q32 -144 194 -165q50 -7 107.5 -7t108.5 9t89 29q83 44 83 132q0 133 -214 195q-61 18 -126 33.5t-130.5 38.5t-117.5 60q-117 82 -117 215q0 89 61 163q62 74 167 104q-142 47 -191 164q-16 40 -16 88q0 139 105.5 216.5t308.5 77.5q256 0 362 -142 q36 -49 51 -118l-161 -20q-27 150 -252 150q-125 0 -189.5 -39.5t-64.5 -110.5q0 -116 188 -171q54 -16 117.5 -31t133 -38t125.5 -60q126 -82 126 -218q0 -149 -124 -232q-41 -28 -95 -41q213 -91 213 -268q0 -147 -114 -231q-115 -86 -327 -86q-295 0 -403 143 q-40 52 -59 129zM313 684q0 -119 185 -177q54 -17 114 -32q177 3 234 107q20 35 20 82t-26.5 81.5t-70.5 60.5q-70 40 -218 74q-112 -6 -177 -62q-61 -53 -61 -134z" />
<glyph unicode="&#xa8;" horiz-adv-x="682" d="M45 1219v184h165v-184h-165zM439 1219v184h163v-184h-163z" />
<glyph unicode="&#xa9;" horiz-adv-x="1509" d="M31 707q0 195 99 365q147 251 432 332q92 26 217 26t256.5 -57t230 -155t155 -229.5t56.5 -256.5t-26 -217.5t-73 -173t-112.5 -146t-145.5 -112.5q-170 -99 -366 -99q-296 0 -510 212q-134 131 -187 318q-26 93 -26 193zM126 707q0 -261 184 -445t444 -184 q261 0 446 184q117 116 162 278q23 80 23 166.5t-22.5 167t-63.5 150t-99 127t-128 98.5q-147 86 -297.5 86t-264.5 -49.5t-200 -135.5q-184 -184 -184 -443zM369 709q0 306 218 395q73 29 159.5 29t142.5 -18t96 -47q71 -53 113 -144l-114 -33q-63 137 -224 137 q-262 0 -262 -319q0 -230 150 -302q50 -24 117 -24q158 0 233 156l115 -35q-53 -103 -107 -145q-104 -80 -223 -80t-193.5 32t-123.5 89q-97 113 -97 309z" />
<glyph unicode="&#xaa;" horiz-adv-x="758" d="M26 878.5q0 60.5 25.5 106.5t68.5 74q78 51 218 53l178 4v60q0 126 -88 148q-28 7 -79 7q-125 0 -141 -135l-149 10q24 158 179 208q54 18 123.5 18t124 -14.5t92.5 -44.5q81 -63 81 -191v-308q0 -58 14 -83t41 -25t51 8v-104q-49 -13 -86.5 -13t-66 11t-47.5 30 q-37 38 -41 100h-4q-73 -147 -260 -147q-167 0 -218 126q-16 41 -16 101.5zM176 883q0 -121 123 -121q93 0 157 62q60 58 60 135v65l-138 -4q-100 -5 -135 -23q-67 -36 -67 -114z" />
<glyph unicode="&#xab;" d="M83 506v63l336 371h167v-31l-335 -372l337 -367v-29h-169zM548 506v63l338 371h168v-31l-338 -372l340 -367v-29h-170z" />
<glyph unicode="&#xac;" horiz-adv-x="1196" d="M100 608v146h995v-574h-145v428h-850z" />
<glyph unicode="&#xad;" horiz-adv-x="682" d="M91 464v160h500v-160h-500z" />
<glyph unicode="&#xae;" horiz-adv-x="1509" d="M31 707q0 195 99 365q147 251 432 332q92 26 217 26t256.5 -57t230 -155t155 -229.5t56.5 -256.5t-26 -217.5t-73 -173t-112.5 -146t-145.5 -112.5q-170 -99 -366 -99q-296 0 -510 212q-134 131 -187 318q-26 93 -26 193zM126 707q0 -261 184 -445t444 -184 q261 0 446 184q117 116 162 278q23 80 23 166.5t-22.5 167t-63.5 150t-99 127t-128 98.5q-147 86 -297.5 86t-264.5 -49.5t-200 -135.5q-184 -184 -184 -443zM468 289v831h307q142 0 217.5 -63t75.5 -169.5t-52 -168t-137 -80.5l221 -350h-145l-199 336h-161v-336h-127z M595 721h182q80 0 122 42.5t42 114.5t-47.5 108t-128.5 36h-170v-301z" />
<glyph unicode="&#xaf;" horiz-adv-x="1131" d="M-17 1452v94h1165v-94h-1165z" />
<glyph unicode="&#xb0;" horiz-adv-x="819" d="M122 1145q0 119 85 203q84 82 202 82q119 0 203 -82q84 -83 84 -202q0 -60 -22.5 -112t-61.5 -90q-85 -84 -203 -84q-117 0 -202 84q-85 83 -85 201zM231 1145q0 -73 52 -127q52 -53 126 -53q75 0 127 53q51 53 51 127q0 75 -51 127q-51 53 -127 53q-75 0 -126 -53 q-52 -53 -52 -127z" />
<glyph unicode="&#xb1;" horiz-adv-x="1124" d="M65 0v145h995v-145h-995zM65 680v145h424v394h147v-394h424v-145h-424v-395h-147v395h-424z" />
<glyph unicode="&#xb2;" horiz-adv-x="682" d="M41 666q56 127 267 274q114 80 159 149q26 40 26 95.5t-35.5 93t-106.5 37.5t-115 -36.5t-52 -104.5l-133 8q12 105 90 170q82 69 213 69q129 0 204 -63q72 -61 72 -170q0 -147 -188 -286q-131 -96 -177.5 -140t-64.5 -86h443v-113h-600z" />
<glyph unicode="&#xb3;" horiz-adv-x="682" d="M27 778l136 13q18 -136 180 -136t162 148q0 137 -189 137h-61v109h57q113 0 156 71q16 26 16 76t-37 84.5t-106.5 34.5t-111.5 -35t-48 -100l-135 12q20 169 187 215q51 14 115 14t116 -16.5t87 -46.5q70 -58 70 -144q0 -176 -176 -215v-2q98 -9 151 -69q46 -52 46 -133 q0 -116 -77.5 -180t-219.5 -64q-286 0 -318 227z" />
<glyph unicode="&#xb4;" horiz-adv-x="682" d="M72 1201v20l217 287h207v-29l-330 -278h-94z" />
<glyph unicode="&#xb5;" horiz-adv-x="1180" d="M140 -425v1507h181v-686q0 -219 132 -263q42 -14 94 -14q128 0 201 87t73 249v627h180v-816q0 -118 45 -138q15 -7 36.5 -7t50.5 8v-129q-65 -20 -116 -20t-86.5 15t-57.5 41q-40 47 -44 138h-3q-106 -194 -299 -194q-143 0 -207 79v-484h-180z" />
<glyph unicode="&#xb6;" horiz-adv-x="1100" d="M80 1049q0 168 98 263q98 97 272 97h563v-102h-129v-1571h-112v1571h-217v-1571h-113v958q-164 0 -261 89q-101 93 -101 266z" />
<glyph unicode="&#xb7;" horiz-adv-x="682" />
<glyph unicode="&#xb8;" horiz-adv-x="682" d="M119 -332q49 -6 86 -6q147 0 147 79t-133 79h-29q-14 0 -28 -2l65 182h107l-39 -100q94 -3 141 -43.5t47 -109.5q0 -181 -274 -181q-57 0 -90 4v98z" />
<glyph unicode="&#xb9;" horiz-adv-x="682" d="M80 563v107h211v620l-202 -138v120l210 137h123v-739h215v-107h-557z" />
<glyph unicode="&#xba;" horiz-adv-x="748" d="M27 1042q0 284 195 364q66 26 154 26q347 0 347 -390q0 -188 -88 -289.5t-259.5 -101.5t-260 100.5t-88.5 290.5zM179 1042q0 -231 114 -273q35 -13 81 -13t83.5 13t63.5 46t39.5 88t13.5 138.5t-12.5 138.5t-37.5 88q-46 59 -145 59q-102 0 -149 -60q-51 -67 -51 -225z " />
<glyph unicode="&#xbb;" d="M83 141v29l338 367l-336 372v31h168l335 -371v-63l-335 -365h-170zM550 141v29l338 367l-336 372v31h166l338 -371v-63l-338 -365h-168z" />
<glyph unicode="&#xbc;" horiz-adv-x="1708" d="M56 563v107h211v620l-202 -138v120l210 137h123v-739h215v-107h-557zM345 0l881 1409h145l-878 -1409h-148zM966 180v111l386 557h151v-555h111v-113h-111v-178h-131v178h-406zM1093 293h279v360q0 44 2 62q-22 -40 -82 -135z" />
<glyph unicode="&#xbd;" horiz-adv-x="1708" d="M56 563v107h211v620l-202 -138v120l210 137h123v-739h215v-107h-557zM345 0l881 1409h145l-878 -1409h-148zM1051 105q56 127 267 274q114 80 159 149q26 40 26 95.5t-35.5 93t-106.5 37.5t-115 -36.5t-52 -104.5l-133 8q12 105 90 170q82 69 213 69q129 0 204 -63 q72 -61 72 -170q0 -147 -188 -286q-131 -96 -177.5 -140t-64.5 -86h443v-113h-600z" />
<glyph unicode="&#xbe;" horiz-adv-x="1708" d="M73 778l136 13q18 -136 180 -136t162 148q0 137 -189 137h-61v109h57q113 0 156 71q16 26 16 76t-37 84.5t-106.5 34.5t-111.5 -35t-48 -100l-135 12q20 169 187 215q51 14 115 14t116 -16.5t87 -46.5q70 -58 70 -144q0 -176 -176 -215v-2q98 -9 151 -69q46 -52 46 -133 q0 -116 -77.5 -180t-219.5 -64q-286 0 -318 227zM365 0l881 1409h145l-878 -1409h-148zM966 180v111l386 557h151v-555h111v-113h-111v-178h-131v178h-406zM1093 293h279v360q0 44 2 62q-22 -40 -82 -135z" />
<glyph unicode="&#xbf;" horiz-adv-x="1251" d="M131 39.5q0 81.5 18.5 135.5t49.5 96.5t70.5 76t80.5 63.5t80.5 59t71.5 63q69 75 71 172h175q-5 -174 -142 -285q-39 -31 -79 -59.5t-78.5 -57t-68.5 -63.5q-67 -78 -67 -182q0 -117 81 -182q77 -64 215.5 -64t220.5 70t96 192l184 -12q-37 -286 -288 -378 q-90 -32 -208 -32t-207 28t-150.5 79.5t-93.5 125t-32 155zM561 881v201h195v-201h-195z" />
<glyph unicode="&#xc0;" horiz-adv-x="1366" d="M4 0l575 1409h217l566 -1409h-195l-161 412h-642l-162 -412h-198zM422 561h527l-181 465q-28 69 -47.5 129t-27 82.5t-8.5 27.5q-2 -5 -9 -28t-18 -57q-28 -82 -56 -156zM440 1747v29h207l217 -226v-20h-114z" />
<glyph unicode="&#xc1;" horiz-adv-x="1366" d="M4 0l575 1409h217l566 -1409h-195l-161 412h-642l-162 -412h-198zM422 561h527l-181 465q-28 69 -47.5 129t-27 82.5t-8.5 27.5q-2 -5 -9 -28t-18 -57q-28 -82 -56 -156zM547 1530v20l217 226h207v-29l-310 -217h-114z" />
<glyph unicode="&#xc2;" horiz-adv-x="1366" d="M4 0l575 1409h217l566 -1409h-195l-161 412h-642l-162 -412h-198zM352 1530v20l234 240h204l224 -240v-20h-105l-219 139h-2l-232 -139h-104zM422 561h527l-181 465q-28 69 -47.5 129t-27 82.5t-8.5 27.5q-2 -5 -9 -28t-18 -57q-28 -82 -56 -156z" />
<glyph unicode="&#xc3;" horiz-adv-x="1366" d="M4 0l575 1409h217l566 -1409h-195l-161 412h-642l-162 -412h-198zM327 1530q13 120 41.5 169t65.5 74t88.5 25t93.5 -18.5t81 -41t73.5 -41t64.5 -18.5q100 0 117 119h92q-13 -118 -40.5 -167.5t-64.5 -75t-88 -25.5t-93 18.5t-81 41t-74.5 41t-78.5 18.5 q-87 0 -106 -119h-91zM422 561h527l-181 465q-28 69 -47.5 129t-27 82.5t-8.5 27.5q-2 -5 -9 -28t-18 -57q-28 -82 -56 -156z" />
<glyph unicode="&#xc4;" horiz-adv-x="1366" d="M4 0l575 1409h217l566 -1409h-195l-161 412h-642l-162 -412h-198zM409 1530v184h165v-184h-165zM422 561h527l-181 465q-28 69 -47.5 129t-27 82.5t-8.5 27.5q-2 -5 -9 -28t-18 -57q-28 -82 -56 -156zM803 1530v184h163v-184h-163z" />
<glyph unicode="&#xc5;" horiz-adv-x="1366" d="M4 0l575 1409h217l566 -1409h-195l-161 412h-642l-162 -412h-198zM422 561h527l-181 465q-28 69 -47.5 129t-27 82.5t-8.5 27.5q-2 -5 -9 -28t-18 -57q-28 -82 -56 -156zM444 1546q0 101 71 170q72 71 171 71t171 -71q71 -69 71 -170q0 -100 -71 -171t-171 -71t-171 71 t-71 171zM551 1559.5q0 -42.5 10.5 -67t28.5 -43.5q38 -40 81 -40t67.5 10.5t42.5 29.5t28.5 43.5t10.5 53t-10.5 53t-28.5 42.5q-39 39 -81.5 39t-67 -10.5t-42.5 -28.5q-39 -39 -39 -81.5z" />
<glyph unicode="&#xc6;" horiz-adv-x="2048" d="M24 0l686 1409h1209v-156h-759v-452h699v-154h-699v-491h800v-156h-991v412h-548l-198 -412h-199zM491 561h478v701h-151q-1 -3 -9 -20.5t-19 -42.5t-24.5 -54t-25.5 -54.5t-21 -44.5t-11 -24z" />
<glyph unicode="&#xc7;" horiz-adv-x="1479" d="M104 711q0 334 178 525q183 194 508 194q455 0 598 -349l-181 -60q-70 174 -259 232q-68 21 -172 21t-196.5 -40t-155.5 -114q-126 -150 -126 -409q0 -257 134 -414q135 -160 368 -160q296 0 445 293l156 -78q-126 -263 -397 -344q-95 -28 -239.5 -28t-273 54.5 t-215.5 151.5q-172 195 -172 525zM629 -332q49 -6 86 -6q147 0 147 79t-133 79h-29q-14 0 -28 -2l65 182h107l-39 -100q94 -3 141 -43.5t47 -109.5q0 -181 -274 -181q-57 0 -90 4v98z" />
<glyph unicode="&#xc8;" horiz-adv-x="1366" d="M168 0v1409h1069v-156h-878v-452h818v-154h-818v-491h919v-156h-1110zM425 1747v29h207l217 -226v-20h-114z" />
<glyph unicode="&#xc9;" horiz-adv-x="1366" d="M168 0v1409h1069v-156h-878v-452h818v-154h-818v-491h919v-156h-1110zM551 1530v20l217 226h207v-29l-310 -217h-114z" />
<glyph unicode="&#xca;" horiz-adv-x="1366" d="M168 0v1409h1069v-156h-878v-452h818v-154h-818v-491h919v-156h-1110zM375 1530v20l234 240h204l224 -240v-20h-105l-219 139h-2l-232 -139h-104z" />
<glyph unicode="&#xcb;" horiz-adv-x="1366" d="M168 0v1409h1069v-156h-878v-452h818v-154h-818v-491h919v-156h-1110zM422 1530v184h165v-184h-165zM816 1530v184h163v-184h-163z" />
<glyph unicode="&#xcc;" horiz-adv-x="569" d="M9 1747v29h207l217 -226v-20h-114zM189 0v1409h191v-1409h-191z" />
<glyph unicode="&#xcd;" horiz-adv-x="569" d="M142 1530v20l217 226h207v-29l-310 -217h-114zM189 0v1409h191v-1409h-191z" />
<glyph unicode="&#xce;" horiz-adv-x="569" d="M-46 1530v20l234 240h204l224 -240v-20h-105l-219 139h-2l-232 -139h-104zM189 0v1409h191v-1409h-191z" />
<glyph unicode="&#xcf;" horiz-adv-x="569" d="M7 1530v184h165v-184h-165zM189 0v1409h191v-1409h-191zM401 1530v184h163v-184h-163z" />
<glyph unicode="&#xd0;" horiz-adv-x="1479" d="M14 647v154h154v608h466q529 0 692 -380q55 -130 55 -308t-53 -312.5t-145 -224.5q-187 -184 -488 -184h-527v647h-154zM359 153h314q230 0 369 143q147 151 147 424q0 142 -41 243.5t-115 166.5q-143 126 -403 126h-271v-455h406v-154h-406v-494z" />
<glyph unicode="&#xd1;" horiz-adv-x="1479" d="M168 0v1409h222l762 -1208l-6 98q-6 126 -6 186v924h172v-1409h-230l-754 1200q10 -245 10 -264v-936h-170zM394 1530q13 120 41.5 169t65.5 74t88.5 25t93.5 -18.5t81 -41t73.5 -41t64.5 -18.5q100 0 117 119h92q-13 -118 -40.5 -167.5t-64.5 -75t-88 -25.5t-93 18.5 t-81 41t-74.5 41t-78.5 18.5q-87 0 -106 -119h-91z" />
<glyph unicode="&#xd2;" horiz-adv-x="1593" d="M97 711q0 334 181 525q185 194 519 194q333 0 517 -196q181 -192 181 -524q0 -164 -47.5 -299t-137.5 -231q-188 -200 -515 -200q-339 0 -523 206q-175 197 -175 525zM291 711q0 -260 129 -415q134 -161 375 -161q254 0 385 163q120 149 120 414q0 126 -32.5 230 t-95.5 178q-133 154 -375 154q-247 0 -379 -154q-127 -147 -127 -409zM544 1747v29h207l217 -226v-20h-114z" />
<glyph unicode="&#xd3;" horiz-adv-x="1593" d="M97 711q0 334 181 525q185 194 519 194q333 0 517 -196q181 -192 181 -524q0 -164 -47.5 -299t-137.5 -231q-188 -200 -515 -200q-339 0 -523 206q-175 197 -175 525zM291 711q0 -260 129 -415q134 -161 375 -161q254 0 385 163q120 149 120 414q0 126 -32.5 230 t-95.5 178q-133 154 -375 154q-247 0 -379 -154q-127 -147 -127 -409zM621 1530v20l217 226h207v-29l-310 -217h-114z" />
<glyph unicode="&#xd4;" horiz-adv-x="1593" d="M97 711q0 334 181 525q185 194 519 194q333 0 517 -196q181 -192 181 -524q0 -164 -47.5 -299t-137.5 -231q-188 -200 -515 -200q-339 0 -523 206q-175 197 -175 525zM291 711q0 -260 129 -415q134 -161 375 -161q254 0 385 163q120 149 120 414q0 126 -32.5 230 t-95.5 178q-133 154 -375 154q-247 0 -379 -154q-127 -147 -127 -409zM469 1530v20l234 240h204l224 -240v-20h-105l-219 139h-2l-232 -139h-104z" />
<glyph unicode="&#xd5;" horiz-adv-x="1593" d="M97 711q0 334 181 525q185 194 519 194q333 0 517 -196q181 -192 181 -524q0 -164 -47.5 -299t-137.5 -231q-188 -200 -515 -200q-339 0 -523 206q-175 197 -175 525zM291 711q0 -260 129 -415q134 -161 375 -161q254 0 385 163q120 149 120 414q0 126 -32.5 230 t-95.5 178q-133 154 -375 154q-247 0 -379 -154q-127 -147 -127 -409zM426 1530q13 120 41.5 169t65.5 74t88.5 25t93.5 -18.5t81 -41t73.5 -41t64.5 -18.5q100 0 117 119h92q-13 -118 -40.5 -167.5t-64.5 -75t-88 -25.5t-93 18.5t-81 41t-74.5 41t-78.5 18.5 q-87 0 -106 -119h-91z" />
<glyph unicode="&#xd6;" horiz-adv-x="1593" d="M97 711q0 334 181 525q185 194 519 194q333 0 517 -196q181 -192 181 -524q0 -164 -47.5 -299t-137.5 -231q-188 -200 -515 -200q-339 0 -523 206q-175 197 -175 525zM291 711q0 -260 129 -415q134 -161 375 -161q254 0 385 163q120 149 120 414q0 126 -32.5 230 t-95.5 178q-133 154 -375 154q-247 0 -379 -154q-127 -147 -127 -409zM516 1530v184h165v-184h-165zM910 1530v184h163v-184h-163z" />
<glyph unicode="&#xd7;" horiz-adv-x="1196" d="M142 330l354 354l-352 352l104 103l350 -353l350 351l105 -105l-350 -348l352 -352l-102 -105l-353 353l-356 -355z" />
<glyph unicode="&#xd8;" horiz-adv-x="1593" d="M71 -53l200 241q-174 192 -174 523q0 334 181 525q185 194 519 194q247 0 414 -110l121 146h192l-201 -242q172 -190 172 -513q0 -334 -185 -531q-188 -200 -515 -200q-246 0 -414 112l-120 -145h-190zM291 711q0 -229 101 -378l707 853q-124 88 -302 88 q-247 0 -379 -154q-127 -147 -127 -409zM493 226q122 -91 302 -91q254 0 385 163q120 149 120 413q0 224 -98 368z" />
<glyph unicode="&#xd9;" horiz-adv-x="1479" d="M158 512v897h191v-881q0 -301 229 -372q69 -21 151.5 -21t155.5 22t128 70q118 103 118 314v868h190v-879q0 -269 -173 -416q-158 -134 -414 -134q-119 0 -223 31t-183 97q-170 142 -170 404zM503 1747v29h207l217 -226v-20h-114z" />
<glyph unicode="&#xda;" horiz-adv-x="1479" d="M158 512v897h191v-881q0 -301 229 -372q69 -21 151.5 -21t155.5 22t128 70q118 103 118 314v868h190v-879q0 -269 -173 -416q-158 -134 -414 -134q-119 0 -223 31t-183 97q-170 142 -170 404zM565 1530v20l217 226h207v-29l-310 -217h-114z" />
<glyph unicode="&#xdb;" horiz-adv-x="1479" d="M158 512v897h191v-881q0 -301 229 -372q69 -21 151.5 -21t155.5 22t128 70q118 103 118 314v868h190v-879q0 -269 -173 -416q-158 -134 -414 -134q-119 0 -223 31t-183 97q-170 142 -170 404zM408 1530v20l234 240h204l224 -240v-20h-105l-219 139h-2l-232 -139h-104z " />
<glyph unicode="&#xdc;" horiz-adv-x="1479" d="M158 512v897h191v-881q0 -301 229 -372q69 -21 151.5 -21t155.5 22t128 70q118 103 118 314v868h190v-879q0 -269 -173 -416q-158 -134 -414 -134q-119 0 -223 31t-183 97q-170 142 -170 404zM459 1530v184h165v-184h-165zM853 1530v184h163v-184h-163z" />
<glyph unicode="&#xdd;" horiz-adv-x="1366" d="M45 1409h210l429 -671l427 671h210l-544 -825v-584h-190v584zM536 1530v20l217 226h207v-29l-310 -217h-114z" />
<glyph unicode="&#xde;" horiz-adv-x="1366" d="M168 0v1409h191v-252h402q244 0 373 -115q124 -112 124 -304q0 -91 -29.5 -170.5t-90.5 -139.5q-132 -131 -365 -131h-414v-297h-191zM359 438h387q159 0 242 84q78 77 78 210t-82 207.5t-246 74.5h-379v-576z" />
<glyph unicode="&#xdf;" horiz-adv-x="1251" d="M142 0v1027q0 457 467 457q197 0 309 -86q106 -80 106 -211q0 -143 -113 -247q-79 -72 -96 -96.5t-17 -57.5t27.5 -62.5t68.5 -58t88.5 -60.5t88.5 -74.5t68.5 -99.5t27.5 -129.5t-20.5 -130t-64.5 -99.5q-93 -92 -273 -92q-171 0 -283 49l-2 164q123 -69 281 -69 q92 0 141 43t49 110.5t-27 106t-67.5 69.5t-88 59.5t-88.5 65.5q-94 85 -94 207q0 114 111 206q67 56 89 97.5t22 81.5t-16.5 71t-47.5 53q-68 49 -157.5 49t-143 -17.5t-89.5 -55.5q-76 -80 -76 -249v-1021h-180z" />
<glyph unicode="&#xe0;" d="M87 302q0 196 147 283q111 66 320 71l243 4v59q0 192 -129 233q-44 13 -99.5 13t-97.5 -7.5t-73 -27.5q-64 -39 -75 -137l-188 17q46 292 434 292q204 0 307 -93.5t103 -270.5v-466q0 -80 21 -120.5t80 -40.5q26 0 59 7v-112q-68 -16 -129 -16t-97.5 13.5t-59.5 40.5 q-44 53 -50 163h-6q-64 -114 -144 -165q-96 -62 -249 -62t-235 86t-82 236zM272 291.5q0 -80.5 47.5 -128.5t134.5 -48t151.5 31.5t106.5 80.5q85 97 85 218v89l-197 -4q-157 -2 -216 -35t-85.5 -78t-26.5 -125.5zM294 1479v29h207l217 -287v-20h-94z" />
<glyph unicode="&#xe1;" d="M87 302q0 196 147 283q111 66 320 71l243 4v59q0 192 -129 233q-44 13 -99.5 13t-97.5 -7.5t-73 -27.5q-64 -39 -75 -137l-188 17q46 292 434 292q204 0 307 -93.5t103 -270.5v-466q0 -80 21 -120.5t80 -40.5q26 0 59 7v-112q-68 -16 -129 -16t-97.5 13.5t-59.5 40.5 q-44 53 -50 163h-6q-64 -114 -144 -165q-96 -62 -249 -62t-235 86t-82 236zM272 291.5q0 -80.5 47.5 -128.5t134.5 -48t151.5 31.5t106.5 80.5q85 97 85 218v89l-197 -4q-157 -2 -216 -35t-85.5 -78t-26.5 -125.5zM412 1201v20l217 287h207v-29l-330 -278h-94z" />
<glyph unicode="&#xe2;" d="M87 302q0 196 147 283q111 66 320 71l243 4v59q0 192 -129 233q-44 13 -99.5 13t-97.5 -7.5t-73 -27.5q-64 -39 -75 -137l-188 17q46 292 434 292q204 0 307 -93.5t103 -270.5v-466q0 -80 21 -120.5t80 -40.5q26 0 59 7v-112q-68 -16 -129 -16t-97.5 13.5t-59.5 40.5 q-44 53 -50 163h-6q-64 -114 -144 -165q-96 -62 -249 -62t-235 86t-82 236zM218 1201v20l234 270h204l224 -270v-20h-105l-219 169h-2l-232 -169h-104zM272 291.5q0 -80.5 47.5 -128.5t134.5 -48t151.5 31.5t106.5 80.5q85 97 85 218v89l-197 -4q-157 -2 -216 -35t-85.5 -78 t-26.5 -125.5z" />
<glyph unicode="&#xe3;" d="M87 302q0 196 147 283q111 66 320 71l243 4v59q0 192 -129 233q-44 13 -99.5 13t-97.5 -7.5t-73 -27.5q-64 -39 -75 -137l-188 17q46 292 434 292q204 0 307 -93.5t103 -270.5v-466q0 -80 21 -120.5t80 -40.5q26 0 59 7v-112q-68 -16 -129 -16t-97.5 13.5t-59.5 40.5 q-44 53 -50 163h-6q-64 -114 -144 -165q-96 -62 -249 -62t-235 86t-82 236zM222 1201q13 120 41.5 169t65.5 74t88.5 25t93.5 -18.5t81 -41t73.5 -41t64.5 -18.5q100 0 117 119h92q-13 -118 -40.5 -167.5t-64.5 -75t-88 -25.5t-93 18.5t-81 41t-74.5 41t-78.5 18.5 q-87 0 -106 -119h-91zM272 291.5q0 -80.5 47.5 -128.5t134.5 -48t151.5 31.5t106.5 80.5q85 97 85 218v89l-197 -4q-157 -2 -216 -35t-85.5 -78t-26.5 -125.5z" />
<glyph unicode="&#xe4;" d="M87 302q0 196 147 283q111 66 320 71l243 4v59q0 192 -129 233q-44 13 -99.5 13t-97.5 -7.5t-73 -27.5q-64 -39 -75 -137l-188 17q46 292 434 292q204 0 307 -93.5t103 -270.5v-466q0 -80 21 -120.5t80 -40.5q26 0 59 7v-112q-68 -16 -129 -16t-97.5 13.5t-59.5 40.5 q-44 53 -50 163h-6q-64 -114 -144 -165q-96 -62 -249 -62t-235 86t-82 236zM272 291.5q0 -80.5 47.5 -128.5t134.5 -48t151.5 31.5t106.5 80.5q85 97 85 218v89l-197 -4q-157 -2 -216 -35t-85.5 -78t-26.5 -125.5zM280 1219v184h165v-184h-165zM674 1219v184h163v-184h-163z " />
<glyph unicode="&#xe5;" d="M87 302q0 196 147 283q111 66 320 71l243 4v59q0 192 -129 233q-44 13 -99.5 13t-97.5 -7.5t-73 -27.5q-64 -39 -75 -137l-188 17q46 292 434 292q204 0 307 -93.5t103 -270.5v-466q0 -80 21 -120.5t80 -40.5q26 0 59 7v-112q-68 -16 -129 -16t-97.5 13.5t-59.5 40.5 q-44 53 -50 163h-6q-64 -114 -144 -165q-96 -62 -249 -62t-235 86t-82 236zM272 291.5q0 -80.5 47.5 -128.5t134.5 -48t151.5 31.5t106.5 80.5q85 97 85 218v89l-197 -4q-157 -2 -216 -35t-85.5 -78t-26.5 -125.5zM315 1410q0 101 71 170q72 71 171 71t171 -71 q71 -69 71 -170q0 -100 -71 -171t-171 -71t-171 71t-71 171zM422 1423.5q0 -42.5 10.5 -67t28.5 -43.5q38 -40 81 -40t67.5 10.5t42.5 29.5t28.5 43.5t10.5 53t-10.5 53t-28.5 42.5q-39 39 -81.5 39t-67 -10.5t-42.5 -28.5q-39 -39 -39 -81.5z" />
<glyph unicode="&#xe6;" horiz-adv-x="1821" d="M66 302q0 249 250 324q92 28 230 30l240 4v59q0 135 -54 190q-56 56 -178 56q-117 0 -161.5 -27t-64 -60.5t-26.5 -84.5l-188 17q46 292 444 292q250 0 349 -139q118 139 346 139q256 0 375 -166q102 -143 102 -409v-24h-762v-17q3 -265 160 -344q54 -27 151.5 -27 t168 47t95.5 119l158 -45q-97 -256 -429.5 -256t-434.5 257q-68 -120 -154 -179q-111 -78 -279.5 -78t-253 86t-84.5 236zM251 303q0 -91 50 -139.5t141.5 -48.5t156 31.5t105.5 80.5q82 96 82 218v89l-195 -4q-214 -5 -287 -82q-53 -54 -53 -145zM970 641h574 q-15 171 -87 249.5t-207 78.5q-178 0 -249 -167q-27 -63 -31 -161z" />
<glyph unicode="&#xe7;" horiz-adv-x="1024" d="M87 542q0 392 241 512q97 48 205.5 48t179.5 -25t123 -69q100 -85 128 -229l-185 -14q-14 90 -71 143t-148 53t-142.5 -25.5t-83.5 -77t-45.5 -129.5t-13.5 -177t13.5 -177t45.5 -135q67 -118 214 -118q96 0 160.5 52t79.5 160l182 -12q-20 -146 -120 -238 q-114 -104 -297 -104q-242 0 -361 162q-105 143 -105 400zM387 -332q49 -6 86 -6q147 0 147 79t-133 79h-29q-14 0 -28 -2l65 182h107l-39 -100q94 -3 141 -43.5t47 -109.5q0 -181 -274 -181q-57 0 -90 4v98z" />
<glyph unicode="&#xe8;" d="M87 548q0 287 142 429q125 125 342 125q256 0 375 -166q102 -143 102 -409v-24h-772q0 -277 165 -359q57 -29 155.5 -29t169 47t95.5 119l158 -45q-97 -256 -441 -256q-240 0 -365.5 143t-125.5 425zM278 641h584q-15 171 -87 249.5t-207 78.5q-181 0 -257 -167 q-29 -63 -33 -161zM327 1479v29h207l217 -287v-20h-94z" />
<glyph unicode="&#xe9;" d="M87 548q0 287 142 429q125 125 342 125q256 0 375 -166q102 -143 102 -409v-24h-772q0 -277 165 -359q57 -29 155.5 -29t169 47t95.5 119l158 -45q-97 -256 -441 -256q-240 0 -365.5 143t-125.5 425zM278 641h584q-15 171 -87 249.5t-207 78.5q-181 0 -257 -167 q-29 -63 -33 -161zM440 1201v20l217 287h207v-29l-330 -278h-94z" />
<glyph unicode="&#xea;" d="M87 548q0 287 142 429q125 125 342 125q256 0 375 -166q102 -143 102 -409v-24h-772q0 -277 165 -359q57 -29 155.5 -29t169 47t95.5 119l158 -45q-97 -256 -441 -256q-240 0 -365.5 143t-125.5 425zM245 1201v20l234 270h204l224 -270v-20h-105l-219 169h-2l-232 -169 h-104zM278 641h584q-15 171 -87 249.5t-207 78.5q-181 0 -257 -167q-29 -63 -33 -161z" />
<glyph unicode="&#xeb;" d="M87 548q0 287 142 429q125 125 342 125q256 0 375 -166q102 -143 102 -409v-24h-772q0 -277 165 -359q57 -29 155.5 -29t169 47t95.5 119l158 -45q-97 -256 -441 -256q-240 0 -365.5 143t-125.5 425zM278 641h584q-15 171 -87 249.5t-207 78.5q-181 0 -257 -167 q-29 -63 -33 -161zM293 1219v184h165v-184h-165zM687 1219v184h163v-184h-163z" />
<glyph unicode="&#xec;" horiz-adv-x="569" d="M10 1479v29h207l217 -287v-20h-94zM194 0v1082h180v-1082h-180z" />
<glyph unicode="&#xed;" horiz-adv-x="569" d="M135 1201v20l217 287h207v-29l-330 -278h-94zM194 0v1082h180v-1082h-180z" />
<glyph unicode="&#xee;" horiz-adv-x="569" d="M-45 1201v20l234 270h204l224 -270v-20h-105l-219 169h-2l-232 -169h-104zM194 0v1082h180v-1082h-180z" />
<glyph unicode="&#xef;" horiz-adv-x="569" d="M8 1219v184h165v-184h-165zM194 0v1082h180v-1082h-180zM402 1219v184h163v-184h-163z" />
<glyph unicode="&#xf0;" d="M86 481q0 355 261 461q93 37 195 37q168 0 262 -59q-109 217 -234 331l-301 -133v114l218 94q-109 87 -242 158h209q80 -36 170 -102l306 132l-1 -112l-211 -92q252 -230 322 -562q23 -111 23 -232v-6q0 -386 -271 -493q-94 -37 -222.5 -37t-219 36.5t-149.5 102.5 q-115 129 -115 362zM275 481q0 -190 72 -279t217 -89q239 0 292 203q18 70 18 164.5t-16.5 163t-51.5 113.5q-71 89 -229 89q-236 0 -285 -206q-17 -68 -17 -159z" />
<glyph unicode="&#xf1;" d="M140 1082h170q1 -5 2 -27t2 -51q4 -66 4 -107h3q57 103 129 149q86 56 196.5 56t175.5 -22t107 -68q81 -89 81 -291v-721h-181v686q0 156 -49 218q-48 59 -174 59q-128 0 -204 -87q-76 -90 -76 -249v-627h-180v851q0 189 -6 231zM222 1201q13 120 41.5 169t65.5 74 t88.5 25t93.5 -18.5t81 -41t73.5 -41t64.5 -18.5q100 0 117 119h92q-13 -118 -40.5 -167.5t-64.5 -75t-88 -25.5t-93 18.5t-81 41t-74.5 41t-78.5 18.5q-87 0 -106 -119h-91z" />
<glyph unicode="&#xf2;" d="M86 542q0 560 485 560q370 0 454 -315q28 -105 28 -245q0 -284 -125 -423t-363 -139q-350 0 -447 314q-32 105 -32 248zM275 542q0 -343 173 -409q53 -20 118.5 -20t121.5 19.5t95 68.5q81 102 81 341q0 347 -168 408q-54 19 -122.5 19t-124 -20.5t-94.5 -70.5 q-80 -101 -80 -336zM329 1479v29h207l217 -287v-20h-94z" />
<glyph unicode="&#xf3;" d="M86 542q0 560 485 560q370 0 454 -315q28 -105 28 -245q0 -284 -125 -423t-363 -139q-350 0 -447 314q-32 105 -32 248zM275 542q0 -343 173 -409q53 -20 118.5 -20t121.5 19.5t95 68.5q81 102 81 341q0 347 -168 408q-54 19 -122.5 19t-124 -20.5t-94.5 -70.5 q-80 -101 -80 -336zM431 1201v20l217 287h207v-29l-330 -278h-94z" />
<glyph unicode="&#xf4;" d="M86 542q0 560 485 560q370 0 454 -315q28 -105 28 -245q0 -284 -125 -423t-363 -139q-350 0 -447 314q-32 105 -32 248zM240 1201v20l234 270h204l224 -270v-20h-105l-219 169h-2l-232 -169h-104zM275 542q0 -343 173 -409q53 -20 118.5 -20t121.5 19.5t95 68.5 q81 102 81 341q0 347 -168 408q-54 19 -122.5 19t-124 -20.5t-94.5 -70.5q-80 -101 -80 -336z" />
<glyph unicode="&#xf5;" d="M86 542q0 560 485 560q370 0 454 -315q28 -105 28 -245q0 -284 -125 -423t-363 -139q-350 0 -447 314q-32 105 -32 248zM224 1201q13 120 41.5 169t65.5 74t88.5 25t93.5 -18.5t81 -41t73.5 -41t64.5 -18.5q100 0 117 119h92q-13 -118 -40.5 -167.5t-64.5 -75t-88 -25.5 t-93 18.5t-81 41t-74.5 41t-78.5 18.5q-87 0 -106 -119h-91zM275 542q0 -343 173 -409q53 -20 118.5 -20t121.5 19.5t95 68.5q81 102 81 341q0 347 -168 408q-54 19 -122.5 19t-124 -20.5t-94.5 -70.5q-80 -101 -80 -336z" />
<glyph unicode="&#xf6;" d="M86 542q0 560 485 560q370 0 454 -315q28 -105 28 -245q0 -284 -125 -423t-363 -139q-350 0 -447 314q-32 105 -32 248zM275 542q0 -343 173 -409q53 -20 118.5 -20t121.5 19.5t95 68.5q81 102 81 341q0 347 -168 408q-54 19 -122.5 19t-124 -20.5t-94.5 -70.5 q-80 -101 -80 -336zM295 1219v184h165v-184h-165zM689 1219v184h163v-184h-163z" />
<glyph unicode="&#xf7;" horiz-adv-x="1124" d="M65 608v146h995v-146h-995zM478 223v183h168v-183h-168zM478 958v183h168v-183h-168z" />
<glyph unicode="&#xf8;" horiz-adv-x="1251" d="M44 -38l184 214q-83 138 -83 366q0 560 485 560q201 0 316 -91l91 105h167l-173 -201q81 -133 81 -395t-125 -401t-363 -139q-195 0 -313 98l-100 -116h-167zM334 542q0 -130 24 -215l482 561q-67 81 -207 81q-148 0 -219 -91q-80 -101 -80 -336zM417 201q68 -88 205 -88 q150 0 220 88q81 102 81 341q0 129 -23 221z" />
<glyph unicode="&#xf9;" d="M139 361v721h181v-686q0 -156 49 -218q48 -59 174 -59q128 0 203 87q77 90 77 249v627h180v-851q0 -189 6 -231h-170q-1 5 -2 27t-3 51q-3 66 -3 107h-3q-57 -103 -129 -149q-86 -56 -196.5 -56t-175.5 22t-107 68q-81 89 -81 291zM342 1479v29h207l217 -287v-20h-94z " />
<glyph unicode="&#xfa;" d="M139 361v721h181v-686q0 -156 49 -218q48 -59 174 -59q128 0 203 87q77 90 77 249v627h180v-851q0 -189 6 -231h-170q-1 5 -2 27t-3 51q-3 66 -3 107h-3q-57 -103 -129 -149q-86 -56 -196.5 -56t-175.5 22t-107 68q-81 89 -81 291zM415 1201v20l217 287h207v-29 l-330 -278h-94z" />
<glyph unicode="&#xfb;" d="M139 361v721h181v-686q0 -156 49 -218q48 -59 174 -59q128 0 203 87q77 90 77 249v627h180v-851q0 -189 6 -231h-170q-1 5 -2 27t-3 51q-3 66 -3 107h-3q-57 -103 -129 -149q-86 -56 -196.5 -56t-175.5 22t-107 68q-81 89 -81 291zM239 1201v20l234 270h204l224 -270v-20 h-105l-219 169h-2l-232 -169h-104z" />
<glyph unicode="&#xfc;" d="M139 361v721h181v-686q0 -156 49 -218q48 -59 174 -59q128 0 203 87q77 90 77 249v627h180v-851q0 -189 6 -231h-170q-1 5 -2 27t-3 51q-3 66 -3 107h-3q-57 -103 -129 -149q-86 -56 -196.5 -56t-175.5 22t-107 68q-81 89 -81 291zM282 1219v184h165v-184h-165zM676 1219 v184h163v-184h-163z" />
<glyph unicode="&#xfd;" horiz-adv-x="1024" d="M5 1082h192l228 -598q10 -27 25.5 -72t31.5 -90q38 -110 41 -126q6 22 45.5 130t49.5 138l212 618h190l-416 -1082q-85 -218 -166 -310q-101 -115 -247 -115q-74 0 -124 11v135q38 -6 84 -6q168 0 266 247l17 43zM355 1201v20l217 287h207v-29l-330 -278h-94z" />
<glyph unicode="&#xfe;" d="M138 -425v1909h180v-423q0 -65 -4 -153h6q73 152 222 182q50 11 137.5 11t164 -40t122.5 -113q87 -134 87 -402q0 -566 -398 -566q-250 0 -336 188h-5q4 -8 4 -170v-423h-180zM318 528q0 -328 165 -394q54 -21 126.5 -21t122 29t79 84t41.5 134.5t12 180.5t-12 179 t-42 132q-60 110 -201 110q-138 0 -205 -82q-86 -104 -86 -352z" />
<glyph unicode="&#xff;" horiz-adv-x="1024" d="M5 1082h192l228 -598q10 -27 25.5 -72t31.5 -90q38 -110 41 -126q6 22 45.5 130t49.5 138l212 618h190l-416 -1082q-85 -218 -166 -310q-101 -115 -247 -115q-74 0 -124 11v135q38 -6 84 -6q168 0 266 247l17 43zM232 1219v184h165v-184h-165zM626 1219v184h163v-184 h-163z" />
<glyph unicode="&#x152;" horiz-adv-x="2048" d="M97 711q0 331 183 519q89 92 218 141t264.5 49t240.5 -11h914v-156h-803v-452h743v-154h-743v-491h844v-156h-959q-67 -10 -223 -10t-285.5 53t-216.5 149q-177 192 -177 519zM291 712q0 -130 32 -234.5t95 -178.5q131 -154 371 -154q82 0 134 4v1111q-44 4 -80 4h-52 q-371 0 -469 -319q-31 -103 -31 -233z" />
<glyph unicode="&#x153;" horiz-adv-x="1933" d="M86 542q0 279 126.5 419.5t368.5 140.5q281 0 398 -177q126 177 386 177q256 0 375 -166q102 -143 102 -409v-24h-772q0 -277 165 -359q57 -29 155.5 -29t169 47t95.5 119l158 -45q-97 -256 -441 -256q-275 0 -396 183q-124 -183 -401 -183q-354 0 -455 314 q-34 105 -34 248zM275 542q0 -429 298 -429q151 0 223 88q85 102 85 341q0 346 -174 408q-55 19 -123.5 19t-125.5 -20.5t-98 -70.5q-85 -104 -85 -336zM1072 641h584q-15 171 -87 249.5t-207 78.5q-181 0 -257 -167q-29 -63 -33 -161z" />
<glyph unicode="&#x178;" horiz-adv-x="1366" d="M45 1409h210l429 -671l427 671h210l-544 -825v-584h-190v584zM405 1530v184h165v-184h-165zM799 1530v184h163v-184h-163z" />
<glyph unicode="&#x2c6;" horiz-adv-x="682" d="M0 1201v20l234 270h204l224 -270v-20h-105l-219 169h-2l-232 -169h-104z" />
<glyph unicode="&#x2dc;" horiz-adv-x="682" d="M-23 1201q13 120 41.5 169t65.5 74t88.5 25t93.5 -18.5t81 -41t73.5 -41t64.5 -18.5q100 0 117 119h92q-13 -118 -40.5 -167.5t-64.5 -75t-88 -25.5t-93 18.5t-81 41t-74.5 41t-78.5 18.5q-87 0 -106 -119h-91z" />
<glyph unicode="&#x2000;" horiz-adv-x="899" />
<glyph unicode="&#x2001;" horiz-adv-x="1798" />
<glyph unicode="&#x2002;" horiz-adv-x="899" />
<glyph unicode="&#x2003;" horiz-adv-x="1798" />
<glyph unicode="&#x2004;" horiz-adv-x="599" />
<glyph unicode="&#x2005;" horiz-adv-x="449" />
<glyph unicode="&#x2006;" horiz-adv-x="299" />
<glyph unicode="&#x2007;" horiz-adv-x="299" />
<glyph unicode="&#x2008;" horiz-adv-x="224" />
<glyph unicode="&#x2009;" horiz-adv-x="359" />
<glyph unicode="&#x200a;" horiz-adv-x="99" />
<glyph unicode="&#x2010;" horiz-adv-x="682" d="M91 464v160h500v-160h-500z" />
<glyph unicode="&#x2011;" horiz-adv-x="682" d="M91 464v160h500v-160h-500z" />
<glyph unicode="&#x2012;" horiz-adv-x="682" d="M91 464v160h500v-160h-500z" />
<glyph unicode="&#x2013;" d="M0 451v137h1138v-137h-1138z" />
<glyph unicode="&#x2014;" horiz-adv-x="2048" d="M0 451v137h2048v-137h-2048z" />
<glyph unicode="&#x2018;" horiz-adv-x="455" d="M127 952v146q0 183 80 311h121q-95 -137 -95 -262h89v-195h-195z" />
<glyph unicode="&#x2019;" horiz-adv-x="455" d="M127 952q94 136 94 260h-88v197h195v-145q0 -187 -78 -312h-123z" />
<glyph unicode="&#x201a;" horiz-adv-x="455" d="M127 -262q94 136 94 262h-88v195h195v-144q0 -188 -78 -313h-123z" />
<glyph unicode="&#x201c;" horiz-adv-x="682" d="M75 952v146q0 183 80 311h121q-95 -137 -95 -262h89v-195h-195zM407 952v146q0 186 78 311h122q-94 -136 -94 -262h88v-195h-194z" />
<glyph unicode="&#x201d;" horiz-adv-x="682" d="M75 952q94 136 94 262h-88v195h195v-145q0 -187 -78 -312h-123zM407 952q94 136 94 262h-88v195h194v-145q0 -186 -79 -312h-121z" />
<glyph unicode="&#x201e;" horiz-adv-x="682" d="M75 -262q94 136 94 262h-88v195h195v-144q0 -188 -78 -313h-123zM407 -262q94 136 94 262h-88v195h194v-144q0 -187 -79 -313h-121z" />
<glyph unicode="&#x2022;" horiz-adv-x="717" d="M81 682q0 115 81 194q81 80 193 80q116 0 198 -80q83 -81 83 -194q0 -58 -22.5 -109t-60.5 -89q-81 -83 -198 -83q-113 0 -193.5 82.5t-80.5 198.5z" />
<glyph unicode="&#x2026;" horiz-adv-x="2048" d="M278 0v219h195v-219h-195zM929 0v219h192v-219h-192zM1576 0v219h194v-219h-194z" />
<glyph unicode="&#x202f;" horiz-adv-x="359" />
<glyph unicode="&#x2039;" horiz-adv-x="682" d="M88 506v63l336 371h167v-31l-335 -372l337 -367v-29h-169z" />
<glyph unicode="&#x203a;" horiz-adv-x="682" d="M89 141v29l338 367l-336 372v31h166l337 -371v-63l-337 -365h-168z" />
<glyph unicode="&#x205f;" horiz-adv-x="449" />
<glyph unicode="&#x20ac;" d="M16 502l40 129h120q-3 24 -3 85t3 79h-160l40 127h129q46 377 297 474q87 34 193 34t179.5 -25t125.5 -69q99 -84 127 -229l-185 -14q-14 91 -74.5 141t-147.5 50t-140 -19.5t-92 -62.5q-80 -88 -101 -280h446l-40 -127h-413q-3 -24 -3 -75t4 -89h452l-40 -129h-404 q42 -376 322 -376q100 0 160 50t74 141l185 -14q-43 -227 -252 -298q-74 -25 -182.5 -25t-197 38.5t-148.5 107.5q-115 132 -143 376h-171z" />
<glyph unicode="&#x2122;" horiz-adv-x="2048" d="M188 1298v111h650v-111h-261v-664h-134v664h-255zM963 634v775h190l223 -563q3 -6 15 -42q74 189 74 192l168 413h184v-775h-126v619q-11 -25 -14.5 -37t-5.5 -17l-230 -565h-108l-163 413q-23 57 -77 206q-2 -20 -2 -33v-586h-128z" />
<glyph unicode="&#xe000;" horiz-adv-x="1080" d="M0 0v1080h1080v-1080h-1080z" />
</font>
</defs>
</svg>
